<svg width="296" height="279" viewBox="0 0 296 279" fill="none" xmlns="http://www.w3.org/2000/svg">
<g clip-path="url(#clip0_0_711)">
<path d="M88.3525 11.6778L86.0425 17.4506C86.0425 17.4506 83.9136 25.5315 86.4102 28.7551C88.9012 31.9732 89.4554 56.6491 86.7778 58.4692C84.1002 60.2948 120.715 41.5727 120.715 41.5727C120.715 41.5727 106.421 8.45419 106.18 8.33358C105.938 8.21297 96.572 5.29639 96.572 5.29639L88.3635 11.6778H88.3525Z" fill="#2FAE71"/>
<path d="M112.193 40.2131L99.9245 44.2426V26.6006H111.052L112.193 40.2131Z" fill="#F3A3A6"/>
<path d="M74.6901 140.375C74.0261 144.415 71.3266 147.315 68.6654 146.849C66.0042 146.383 64.3801 142.727 65.0495 138.681C65.2909 137.063 65.9329 135.528 66.9205 134.218L69.9603 117.13L78.2346 118.862L74.3553 135.523C74.8656 137.102 74.9809 138.763 74.6901 140.375Z" fill="#F3A3A6"/>
<path d="M107.579 237.735H96.0891V254.023H107.579V237.735Z" fill="#F3A3A6"/>
<path d="M84.9012 263.88C83.6941 263.88 82.6187 263.852 81.8066 263.776C78.7559 263.496 75.8423 261.243 74.3773 259.927C73.7188 259.335 73.5103 258.392 73.8505 257.581C74.0974 256.999 74.5858 256.561 75.1948 256.391L83.2606 254.088L96.3196 245.284L96.4677 245.547C96.5226 245.646 97.8065 247.954 98.2345 249.511C98.3991 250.103 98.3552 250.596 98.1083 250.98C97.9382 251.243 97.6968 251.397 97.5047 251.484C97.7407 251.731 98.4814 252.235 100.764 252.597C104.095 253.124 104.797 249.675 104.824 249.533L104.846 249.417L104.945 249.352C106.531 248.332 107.507 247.866 107.842 247.965C108.051 248.025 108.402 248.135 109.351 257.526C109.444 257.822 110.108 259.982 109.658 262.049C109.17 264.296 99.3374 263.523 97.3675 263.348C97.3127 263.353 89.9492 263.88 84.9067 263.88L84.9012 263.88Z" fill="#2F2E43"/>
<path d="M140.298 224.943L130.549 231.018L139.175 244.838L148.924 238.763L140.298 224.943Z" fill="#F3A3A6"/>
<path d="M127.348 261.649C125.998 261.649 124.758 261.484 123.875 261.331C123.008 261.177 122.328 260.486 122.185 259.62C122.086 258.995 122.267 258.365 122.695 257.899L128.319 251.682L134.739 237.307L135.003 237.45C135.101 237.505 137.411 238.782 138.602 239.878C139.057 240.295 139.282 240.739 139.271 241.194C139.266 241.512 139.145 241.764 139.024 241.945C139.354 242.033 140.248 242.066 142.377 241.167C145.483 239.856 144.253 236.556 144.199 236.419L144.155 236.309L144.204 236.205C145.011 234.5 145.587 233.59 145.927 233.497C146.141 233.437 146.492 233.343 152.27 240.816C152.506 241.013 154.212 242.499 154.926 244.489C155.699 246.654 146.948 251.199 145.186 252.087C145.131 252.131 135.974 258.781 132.21 260.673C130.717 261.424 128.95 261.654 127.343 261.654L127.348 261.649Z" fill="#2F2E43"/>
<path d="M116.04 101.527H83.8697L80.9506 131.428L93.7242 241.907H110.147L103.579 178.098L130.218 235.706L144.813 225.498L124.012 171.717C124.012 171.717 131.441 124.865 125.603 113.193C119.765 101.527 116.04 101.527 116.04 101.527Z" fill="#2F2E43"/>
<path d="M132.04 103.353H76.21L96.2812 37.3568H118.542L132.04 103.353Z" fill="#6A62EC"/>
<path d="M99.7928 37.3624C99.7928 37.3624 85.9273 36.995 84.4678 40.6463C83.0083 44.292 65.8561 131.071 65.8561 131.071H77.1702L99.7983 37.3624L99.7928 37.3624Z" fill="#625ADD"/>
<path d="M101.444 31.4798C108.196 31.4798 113.669 26.0111 113.669 19.2652C113.669 12.5193 108.196 7.05066 101.444 7.05066C94.6928 7.05066 89.2195 12.5193 89.2195 19.2652C89.2195 26.0111 94.6928 31.4798 101.444 31.4798Z" fill="#F3A3A6"/>
<path d="M103.815 0.291012C103.815 0.291012 118.531 -3.47532 123.036 16.091C123.036 16.091 123.156 21.195 125.713 23.2618C128.27 25.3287 127.414 36.0246 127.414 36.0246C127.414 36.0246 132.281 44.0452 128.144 47.6909C128.144 47.6909 126.317 55.103 128.994 59.3573C131.672 63.6115 141.768 87.01 124.978 88.4354C124.978 88.4354 116.462 83.2985 120.479 67.9864C124.495 52.6743 119.99 44.2152 119.99 44.2152C119.99 44.2152 107.096 39.5443 107.826 29.5774C108.555 19.6106 99.5514 9.76442 98.9478 9.89051C98.3443 10.0166 92.0123 6.36539 89.214 17.5493L86.2181 17.0394C86.2181 17.0394 84.9616 -1.77581 103.815 0.291012Z" fill="#2EBC78"/>
<path d="M141.57 138.417C142.388 142.431 140.89 146.098 138.234 146.608C135.579 147.118 132.764 144.273 131.952 140.26C131.606 138.659 131.661 137.003 132.111 135.424L128.879 118.369L137.23 117.047L139.529 133.999C140.566 135.293 141.263 136.806 141.57 138.417Z" fill="#F3A3A6"/>
<path d="M108.813 37.439C108.813 37.439 121.027 35.893 122.487 39.5387C123.946 43.1844 141.099 129.964 141.099 129.964H129.784L108.813 37.439Z" fill="#625ADD"/>
<path d="M142.053 128.27C139.09 131.099 138.218 134.964 140.111 136.893C141.998 138.829 145.933 138.1 148.901 135.265C150.103 134.152 151.002 132.76 151.535 131.203L163.935 119.043L157.834 113.199L146.262 125.803C144.671 126.274 143.233 127.118 142.064 128.264L142.053 128.27Z" fill="#F3A3A6"/>
<path d="M146.887 122.579L169.773 93.2707L181.817 61.7749C183.134 58.3375 185.905 55.7444 189.428 54.6644C192.95 53.5844 196.703 54.171 199.721 56.2817C204.654 59.7245 206.229 66.3197 203.386 71.6211L184.824 106.231L184.797 106.286L153.033 130.309L146.887 122.59V122.579Z" fill="#192534"/>
<path d="M200.522 58.376L186.245 63.0633V42.5376H199.194L200.522 58.376Z" fill="#F3A3A6"/>
<path d="M188.012 48.2172C195.867 48.2172 202.234 41.8551 202.234 34.0071C202.234 26.1591 195.867 19.797 188.012 19.797C180.157 19.797 173.79 26.1591 173.79 34.0071C173.79 41.8551 180.157 48.2172 188.012 48.2172Z" fill="#F3A3A6"/>
<path d="M191.633 35.1201L189.674 37.4994L186.13 31.2989C186.13 31.2989 181.603 31.5346 181.603 28.174C181.603 24.8188 177.45 24.7256 177.45 24.7256C177.45 24.7256 171.568 14.4682 183.749 17.171C183.749 17.171 192.193 11.3872 196.396 16.3322C196.396 16.3322 209.274 22.8123 205.587 34.0949L199.463 45.7228L198.075 43.0913C198.075 43.0913 198.914 32.039 191.633 35.1201Z" fill="#282727"/>
<path d="M204.44 252.855H192.95V269.143H204.44V252.855Z" fill="#F3A3A6"/>
<path d="M181.757 279C180.55 279 179.474 278.973 178.662 278.896C175.611 278.616 172.698 276.363 171.233 275.047C170.574 274.455 170.366 273.512 170.706 272.701C170.953 272.12 171.441 271.681 172.05 271.511L180.116 269.209L193.175 260.404L193.323 260.667C193.378 260.766 194.662 263.074 195.09 264.631C195.255 265.223 195.211 265.716 194.964 266.1C194.794 266.363 194.552 266.517 194.36 266.605C194.596 266.851 195.337 267.356 197.62 267.717C200.95 268.244 201.652 264.795 201.68 264.653L201.702 264.538L201.801 264.472C203.386 263.452 204.363 262.986 204.698 263.085C204.906 263.145 205.257 263.255 206.207 272.646C206.3 272.942 206.964 275.102 206.514 277.169C206.026 279.417 196.193 278.644 194.223 278.468C194.168 278.474 186.805 279 181.762 279L181.757 279Z" fill="#2F2E43"/>
<path d="M228.772 228.442L219.919 235.76L230.31 248.31L239.163 240.992L228.772 228.442Z" fill="#F3A3A6"/>
<path d="M227.984 263.008C227.051 263.776 226.207 264.439 225.537 264.9C223.008 266.626 219.326 266.747 217.362 266.665C216.478 266.626 215.715 266.034 215.458 265.19C215.277 264.582 215.375 263.935 215.732 263.414L220.478 256.501L224.923 241.402L225.202 241.512C225.307 241.55 227.765 242.515 229.093 243.442C229.597 243.793 229.877 244.204 229.932 244.653C229.971 244.966 229.883 245.24 229.789 245.432C230.13 245.47 231.019 245.388 233.01 244.215C235.913 242.504 234.256 239.396 234.179 239.264L234.124 239.16L234.157 239.05C234.728 237.252 235.183 236.276 235.507 236.139C235.71 236.052 236.045 235.909 242.766 242.548C243.029 242.713 244.917 243.957 245.888 245.838C246.947 247.882 238.876 253.551 237.246 254.664C237.208 254.702 231.869 259.795 227.984 263.008Z" fill="#2F2E43"/>
<path d="M173.949 127.25H213.362L204.604 257.416H191.469L173.954 127.25L173.949 127.25Z" fill="#2F2E43"/>
<path d="M181.976 134.421L173.949 127.25L177.96 198.838L222.848 241.496L234.042 232.258L207.886 198.35L181.976 134.421Z" fill="#2F2E43"/>
<path d="M181.976 50.6788L201.438 47.521L207.485 58.0799C215.167 71.5006 218.3 87.0484 216.418 102.399L213.362 127.25H173.949L181.976 50.6788Z" fill="#192534"/>
<path d="M142.212 133.407C138.942 135.879 137.631 139.613 139.282 141.751C140.934 143.889 144.928 143.62 148.199 141.148C149.521 140.177 150.58 138.9 151.282 137.414L165 126.768L159.611 120.255L146.657 131.444C145.022 131.729 143.496 132.403 142.201 133.407L142.212 133.407Z" fill="#F3A3A6"/>
<path d="M147.672 128.308L173.79 101.834L189.389 71.9392C191.09 68.6772 194.146 66.4185 197.773 65.7497C201.395 65.0808 205.054 66.1005 207.814 68.5402C212.319 72.5313 213.12 79.2635 209.685 84.1976L187.249 116.433L187.216 116.483L152.89 136.68L147.677 128.303L147.672 128.308Z" fill="#192534"/>
</g>
<defs>
<clipPath id="clip0_0_711">
<rect width="295" height="279" fill="white" transform="translate(0.171875)"/>
</clipPath>
</defs>
</svg>
