<svg width="36" height="36" viewBox="0 0 36 36" fill="none" xmlns="http://www.w3.org/2000/svg">
<g id="Group 6">
<rect id="Rectangle 8" x="0.464111" y="0.0445557" width="35" height="35" rx="10" fill="#282727"/>
<path id="Vector" d="M28.7495 22.3311C28.1599 23.6375 27.8786 24.2232 27.1195 25.3754C26.0636 26.99 24.5685 29.0015 22.7188 29.013C21.0772 29.0284 20.6534 27.9418 18.4222 27.961C16.1911 27.9687 15.7248 29.0323 14.0794 29.0169C12.2336 29.0015 10.8194 27.1865 9.75965 25.5796C6.79635 21.0672 6.48422 15.7764 8.31461 12.9634C9.60937 10.9673 11.6594 9.79586 13.5861 9.79586C15.5437 9.79586 16.7768 10.871 18.3991 10.871C19.9713 10.871 20.927 9.79201 23.1966 9.79201C24.9076 9.79201 26.7226 10.7245 28.0173 12.3391C23.7785 14.6589 24.4683 20.7127 28.7495 22.3311ZM21.4742 7.98859C22.2988 6.93274 22.9231 5.4376 22.6995 3.91549C21.3508 4.00797 19.7786 4.86729 18.8577 5.97709C18.0253 6.99054 17.3355 8.49724 17.6053 9.95385C19.0734 10.0001 20.5917 9.12536 21.4742 7.98859Z" fill="white"/>
</g>
</svg>
