<svg width="36" height="36" viewBox="0 0 36 36" fill="none" xmlns="http://www.w3.org/2000/svg">
<g id="Group 5">
<rect id="Rectangle 7" x="0.464111" y="0.230072" width="35" height="35" rx="10" fill="#282727"/>
<path id="Vector" d="M14.9984 8.76972C14.9984 8.76972 11.4536 9.00035 9.13534 10.763C9.12446 10.7672 9.11141 10.7733 9.10054 10.7795C8.69822 11.1316 8.39593 11.6773 8.02188 12.4598C7.64783 13.2423 7.25203 14.2493 6.89103 15.3757C6.17119 17.6305 5.5862 20.3981 5.5862 23.003C5.58402 23.0957 5.60794 23.1863 5.65579 23.2666C6.46913 24.6195 7.96534 25.437 9.36151 25.9518C10.7577 26.4666 12.0473 26.6725 12.7019 26.6931C12.8867 26.6993 13.0629 26.619 13.1716 26.479L14.5286 24.6998C15.6225 24.9449 16.9056 25.1117 18.3909 25.1117C19.8763 25.1117 21.1594 24.9449 22.2532 24.6998L23.6103 26.479C23.719 26.619 23.8952 26.6993 24.08 26.6931C24.7346 26.6725 26.0242 26.4666 27.4204 25.9518C28.8165 25.437 30.3127 24.6195 31.1261 23.2666C31.1739 23.1863 31.1979 23.0957 31.1957 23.003C31.1957 20.3981 30.6107 17.6305 29.8909 15.3757C29.5298 14.2493 29.134 13.2423 28.76 12.4598C28.3859 11.6773 28.0837 11.1316 27.6813 10.7795C27.6705 10.7733 27.6574 10.7672 27.6465 10.763C25.3283 9.00035 21.7835 8.76972 21.7835 8.76972C21.7422 8.7656 21.703 8.7656 21.6617 8.76972C21.4682 8.79443 21.3051 8.91387 21.2268 9.08272C21.2268 9.08272 21.0376 9.47603 20.9136 10.0382C19.8284 9.87346 18.915 9.82404 18.3909 9.82404C17.8668 9.82404 16.9534 9.87346 15.8683 10.0382C15.7443 9.47603 15.5551 9.08272 15.5551 9.08272C15.4594 8.8768 15.2354 8.75119 14.9984 8.76972ZM14.6504 9.90641C14.6917 10.0135 14.72 10.1144 14.7548 10.2359C13.5 10.5118 12.1256 10.9628 10.8403 11.7185C10.6381 11.7988 10.5054 11.9842 10.4989 12.1921C10.4945 12.3981 10.6185 12.5896 10.8142 12.6802C11.0121 12.7687 11.247 12.7419 11.4144 12.6081C13.9937 11.0946 17.2753 10.8784 18.3909 10.8784C19.5066 10.8784 22.7882 11.0946 25.3674 12.6081C25.5349 12.7419 25.7698 12.7687 25.9677 12.6802C26.1634 12.5896 26.2873 12.3981 26.283 12.1921C26.2765 11.9842 26.1438 11.7988 25.9416 11.7185C24.6563 10.9628 23.2819 10.5118 22.0271 10.2359C22.0619 10.1144 22.0901 10.0135 22.1315 9.90641C22.7665 9.98054 25.2348 10.2956 26.9158 11.5538C27.0246 11.6485 27.403 12.1757 27.7509 12.9046C28.0989 13.6336 28.4642 14.5829 28.8122 15.6722C29.4907 17.7973 30.0387 20.4187 30.0648 22.8218C29.432 23.7917 28.2446 24.5124 27.0202 24.9634C25.9068 25.3732 24.8673 25.5564 24.3236 25.6059L23.3841 24.4033C23.8625 24.2571 24.2931 24.0985 24.6715 23.942C26.0764 23.3572 26.8288 22.7394 26.8288 22.7394C27.0594 22.5438 27.0789 22.2082 26.8723 21.9899C26.6657 21.7716 26.3113 21.7531 26.0807 21.9487C26.0807 21.9487 25.4979 22.4532 24.2192 22.9865C23.7494 23.1822 23.1797 23.3757 22.5316 23.5466C22.3815 23.5302 22.2315 23.5714 22.1141 23.662C21.0767 23.9008 19.8436 24.0573 18.3909 24.0573C16.9274 24.0573 15.6921 23.8864 14.6504 23.6455C14.533 23.5714 14.3895 23.5405 14.2503 23.5631C13.6 23.3922 13.0346 23.1822 12.5627 22.9865C11.284 22.4532 10.7011 21.9487 10.7011 21.9487C10.575 21.8375 10.401 21.7901 10.2314 21.8169C10.0161 21.8478 9.83777 21.994 9.77905 22.1937C9.71816 22.3914 9.78775 22.6056 9.95303 22.7394C9.95303 22.7394 10.7055 23.3572 12.1104 23.942C12.4888 24.0985 12.9193 24.2571 13.3978 24.4033L12.4583 25.6059C11.9146 25.5564 10.8751 25.3732 9.76166 24.9634C8.53729 24.5124 7.34989 23.7917 6.71705 22.8218C6.74315 20.4187 7.29118 17.7973 7.96969 15.6722C8.31764 14.5829 8.683 13.6336 9.03095 12.9046C9.3789 12.1757 9.75731 11.6485 9.86604 11.5538C11.5471 10.2956 14.0154 9.98054 14.6504 9.90641ZM14.7722 16.1499C13.3521 16.1499 12.2669 17.3711 12.2669 18.7857C12.2669 20.2004 13.3521 21.4215 14.7722 21.4215C16.1923 21.4215 17.2775 20.2004 17.2775 18.7857C17.2775 17.3711 16.1923 16.1499 14.7722 16.1499ZM22.0097 16.1499C20.5896 16.1499 19.5044 17.3711 19.5044 18.7857C19.5044 20.2004 20.5896 21.4215 22.0097 21.4215C23.4298 21.4215 24.5149 20.2004 24.5149 18.7857C24.5149 17.3711 23.4298 16.1499 22.0097 16.1499ZM14.7722 17.2043C15.5051 17.2043 16.164 17.8715 16.164 18.7857C16.164 19.7 15.5051 20.3672 14.7722 20.3672C14.0393 20.3672 13.3804 19.7 13.3804 18.7857C13.3804 17.8715 14.0393 17.2043 14.7722 17.2043ZM22.0097 17.2043C22.7425 17.2043 23.4015 17.8715 23.4015 18.7857C23.4015 19.7 22.7425 20.3672 22.0097 20.3672C21.2768 20.3672 20.6178 19.7 20.6178 18.7857C20.6178 17.8715 21.2768 17.2043 22.0097 17.2043Z" fill="white"/>
</g>
</svg>
