<svg width="24" height="24" viewBox="0 0 24 24" fill="none" xmlns="http://www.w3.org/2000/svg">
<g id="Frame">
<rect width="23.0488" height="23.0488" transform="translate(0.488892 0.630127)" fill="#282727"/>
<path id="Vector" d="M20.4165 1.33957H3.59326C2.26543 1.33957 1.18994 2.41505 1.18994 3.74289V20.5661C1.18994 21.8939 2.26543 22.9694 3.59326 22.9694H12.7511V14.6047H9.93562V11.3302H12.7511V8.92084C12.7511 6.12818 14.4587 4.60568 16.9509 4.60568C17.7909 4.60327 18.6296 4.64653 19.4648 4.73185V7.65188H17.7488C16.3909 7.65188 16.1266 8.29357 16.1266 9.24048V11.3254H19.371L18.9493 14.5999H16.1073V22.9694H20.4165C21.7443 22.9694 22.8198 21.8939 22.8198 20.5661V3.74289C22.8198 2.41505 21.7443 1.33957 20.4165 1.33957Z" fill="white"/>
</g>
</svg>
