<svg width="22" height="22" viewBox="0 0 22 22" fill="none" xmlns="http://www.w3.org/2000/svg">
<g id="Frame" clip-path="url(#clip0_0_117)">
<path id="Vector" d="M11.4185 21.5624C5.63141 21.5624 0.922607 16.8554 0.922607 11.0683C0.922607 5.2812 5.63141 0.574173 11.4185 0.574173C14.0402 0.574173 16.5497 1.54552 18.4871 3.30999L18.84 3.63258L15.3787 7.09378L15.0579 6.81931C14.042 5.94955 12.7499 5.47012 11.4185 5.47012C8.33158 5.47012 5.81855 7.98136 5.81855 11.0683C5.81855 14.1552 8.33158 16.6665 11.4185 16.6665C13.6446 16.6665 15.4037 15.5294 16.2325 13.592H10.9622V8.86716L21.2514 8.88142L21.328 9.24322C21.8645 11.7901 21.435 15.5365 19.2606 18.217C17.4605 20.436 14.8227 21.5624 11.4185 21.5624Z" fill="white"/>
</g>
<defs>
<clipPath id="clip0_0_117">
<rect width="21.3415" height="21.3415" fill="white" transform="translate(0.293335 0.397552)"/>
</clipPath>
</defs>
</svg>
