<svg width="36" height="36" viewBox="0 0 36 36" fill="none" xmlns="http://www.w3.org/2000/svg">
<g id="Group 6">
<rect id="Rectangle 8" x="0.464111" y="0.525055" width="35" height="35" rx="10" fill="#282727"/>
<path id="Vector" d="M17.5214 7.35434C12.1055 7.35434 7.65287 11.5648 7.13074 16.9584L12.4429 19.7369C12.9793 19.2761 13.6767 18.9951 14.4361 18.9951H14.4602C14.6453 18.7041 14.8583 18.3399 15.0814 17.9616C15.5465 17.1807 16.0687 16.2979 16.5814 15.6189C16.6953 13.4508 18.4565 11.7196 20.6068 11.7196C22.8329 11.7196 24.6414 13.5676 24.6414 15.8424C24.6414 18.0396 22.9473 19.8393 20.8256 19.9557C20.161 20.4796 19.3018 21.0133 18.5329 21.4838C18.1627 21.7166 17.8062 21.9341 17.5214 22.1232V22.1479C17.5214 23.8891 16.1402 25.3006 14.4361 25.3006C12.7321 25.3006 11.3508 23.8891 11.3508 22.1479C11.3508 22.0654 11.3553 21.9878 11.3601 21.9053L7.21139 19.7322C8.01358 24.8153 12.3239 28.6958 17.5214 28.6958C23.2886 28.6958 27.9641 23.9182 27.9641 18.0251C27.9641 12.1319 23.2886 7.35434 17.5214 7.35434ZM20.6068 12.6897C18.9075 12.6897 17.5214 14.106 17.5214 15.8424C17.5214 17.5788 18.9075 18.9951 20.6068 18.9951C22.3061 18.9951 23.6921 17.5788 23.6921 15.8424C23.6921 14.106 22.3061 12.6897 20.6068 12.6897ZM20.6068 13.6598C21.7887 13.6598 22.7428 14.6347 22.7428 15.8424C22.7428 17.0502 21.7887 18.0251 20.6068 18.0251C19.4249 18.0251 18.4708 17.0502 18.4708 15.8424C18.4708 14.6347 19.4249 13.6598 20.6068 13.6598ZM14.4361 19.9652C14.0611 19.9652 13.7053 20.0624 13.4015 20.2418L14.9775 21.066C15.5614 21.3716 15.7891 22.1045 15.4949 22.7011C15.2813 23.1182 14.8681 23.3604 14.4361 23.3604C14.251 23.3604 14.0703 23.317 13.8947 23.2297L12.314 22.3998C12.4375 23.4863 13.3396 24.3305 14.4361 24.3305C15.618 24.3305 16.5721 23.3556 16.5721 22.1479C16.5721 20.9401 15.618 19.9652 14.4361 19.9652Z" fill="white"/>
</g>
</svg>
