<svg width="87" height="83" viewBox="0 0 87 83" fill="none" xmlns="http://www.w3.org/2000/svg">
<g id="Group 86">
<path id="Vector" d="M4.33729 0C1.94744 0 0 1.94744 0 4.33729V73.7339C0 76.1238 1.94744 78.0712 4.33729 78.0712H73.7339C76.1238 78.0712 78.0712 76.1238 78.0712 73.7339V4.33729C78.0712 1.94744 76.1238 0 73.7339 0H4.33729ZM8.67458 8.67458H69.3966V60.722H8.67458V8.67458ZM39.0356 17.0759C34.0434 17.0759 29.8189 20.511 29.8189 26.9736C29.8189 31.1981 31.7012 35.44 34.2906 38.0857C35.3055 40.7315 33.5793 41.7377 33.2063 41.8809C27.9755 43.7719 21.8209 47.2808 21.8209 50.6899V56.2503H56.2503V50.6942C56.2503 47.181 50.0827 43.6938 44.5917 41.8809C44.3401 41.7985 42.783 41.1002 43.7806 38.0857C46.3613 35.44 48.3868 31.1764 48.3868 26.9736C48.3868 20.511 44.0278 17.0759 39.0356 17.0759Z" fill="#5571FF"/>
<path id="Vector_2" d="M13.0743 4.92877C10.6845 4.92877 8.73706 6.87621 8.73706 9.26606V78.6627C8.73706 81.0525 10.6845 83 13.0743 83H82.471C84.8608 83 86.8083 81.0525 86.8083 78.6627V9.26606C86.8083 6.87621 84.8608 4.92877 82.471 4.92877H13.0743ZM17.4116 13.6033H78.1337V65.6508H17.4116V13.6033ZM47.7727 22.0047C42.7804 22.0047 38.5559 25.4398 38.5559 31.9024C38.5559 36.1269 40.4383 40.3688 43.0277 43.0145C44.0426 45.6602 42.3164 46.6665 41.9433 46.8096C36.7126 48.7007 30.558 52.2096 30.558 55.6187V61.1791H64.9874V55.623C64.9874 52.1098 58.8197 48.6226 53.3287 46.8096C53.0772 46.7272 51.5201 46.0289 52.5177 43.0145C55.0983 40.3688 57.1239 36.1052 57.1239 31.9024C57.1239 25.4398 52.7649 22.0047 47.7727 22.0047Z" fill="#5571FF" fill-opacity="0.47"/>
</g>
</svg>
