<svg width="26" height="19" viewBox="0 0 26 19" fill="none" xmlns="http://www.w3.org/2000/svg">
<g id="Group 111">
<path id="Vector" d="M25 5.35653L20.2448 5.35653M11.4449 5.35653L1 5.35653M6 14.6803L1 14.6803M25 14.6802L13 14.6802" stroke="white" stroke-width="2" stroke-linecap="round"/>
<path id="Vector_2" d="M12.6824 14.7255C12.6824 12.9334 11.1865 11.4806 9.34122 11.4806C7.49592 11.4806 6 12.9334 6 14.7255C6 16.5176 7.49592 17.9703 9.34122 17.9703C11.1865 17.9703 12.6824 16.5176 12.6824 14.7255Z" stroke="white" stroke-width="2" stroke-linecap="round"/>
<path id="Vector_3" d="M19.4222 5.01407C19.4222 3.22199 17.9263 1.76922 16.081 1.76922C14.2357 1.76922 12.7397 3.22199 12.7397 5.01407C12.7397 6.80615 14.2357 8.25891 16.081 8.25891C17.9263 8.25891 19.4222 6.80615 19.4222 5.01407Z" stroke="white" stroke-width="2" stroke-linecap="round"/>
</g>
</svg>
