<svg width="32" height="32" viewBox="0 0 32 32" fill="none" xmlns="http://www.w3.org/2000/svg">
<g id="help">
<mask id="mask0_641_394" style="mask-type:alpha" maskUnits="userSpaceOnUse" x="0" y="0" width="32" height="32">
<rect id="Bounding box" width="32" height="32" fill="#D9D9D9"/>
</mask>
<g mask="url(#mask0_641_394)">
<path id="help_2" d="M15.9344 24.0001C16.4011 24.0001 16.7955 23.839 17.1177 23.5167C17.4399 23.1945 17.6011 22.8001 17.6011 22.3334C17.6011 21.8667 17.4399 21.4723 17.1177 21.1501C16.7955 20.8279 16.4011 20.6667 15.9344 20.6667C15.4677 20.6667 15.0733 20.8279 14.7511 21.1501C14.4288 21.4723 14.2677 21.8667 14.2677 22.3334C14.2677 22.8001 14.4288 23.1945 14.7511 23.5167C15.0733 23.839 15.4677 24.0001 15.9344 24.0001ZM14.7344 18.8667H17.2011C17.2011 18.1334 17.2844 17.5556 17.4511 17.1334C17.6177 16.7112 18.0899 16.1334 18.8677 15.4001C19.4455 14.8223 19.9011 14.2723 20.2344 13.7501C20.5677 13.2279 20.7344 12.6001 20.7344 11.8667C20.7344 10.6223 20.2788 9.66675 19.3677 9.00008C18.4566 8.33341 17.3788 8.00008 16.1344 8.00008C14.8677 8.00008 13.8399 8.33341 13.0511 9.00008C12.2622 9.66675 11.7122 10.4667 11.4011 11.4001L13.6011 12.2667C13.7122 11.8667 13.9622 11.4334 14.3511 10.9667C14.7399 10.5001 15.3344 10.2667 16.1344 10.2667C16.8455 10.2667 17.3788 10.4612 17.7344 10.8501C18.0899 11.239 18.2677 11.6667 18.2677 12.1334C18.2677 12.5779 18.1344 12.9945 17.8677 13.3834C17.6011 13.7723 17.2677 14.1334 16.8677 14.4667C15.8899 15.3334 15.2899 15.989 15.0677 16.4334C14.8455 16.8779 14.7344 17.689 14.7344 18.8667ZM16.0011 29.3334C14.1566 29.3334 12.4233 28.9834 10.8011 28.2834C9.17884 27.5834 7.76772 26.6334 6.56772 25.4334C5.36772 24.2334 4.41772 22.8223 3.71772 21.2001C3.01772 19.5779 2.66772 17.8445 2.66772 16.0001C2.66772 14.1556 3.01772 12.4223 3.71772 10.8001C4.41772 9.17786 5.36772 7.76675 6.56772 6.56675C7.76772 5.36675 9.17884 4.41675 10.8011 3.71675C12.4233 3.01675 14.1566 2.66675 16.0011 2.66675C17.8455 2.66675 19.5788 3.01675 21.2011 3.71675C22.8233 4.41675 24.2344 5.36675 25.4344 6.56675C26.6344 7.76675 27.5844 9.17786 28.2844 10.8001C28.9844 12.4223 29.3344 14.1556 29.3344 16.0001C29.3344 17.8445 28.9844 19.5779 28.2844 21.2001C27.5844 22.8223 26.6344 24.2334 25.4344 25.4334C24.2344 26.6334 22.8233 27.5834 21.2011 28.2834C19.5788 28.9834 17.8455 29.3334 16.0011 29.3334ZM16.0011 26.6667C18.9788 26.6667 21.5011 25.6334 23.5677 23.5667C25.6344 21.5001 26.6677 18.9779 26.6677 16.0001C26.6677 13.0223 25.6344 10.5001 23.5677 8.43341C21.5011 6.36675 18.9788 5.33341 16.0011 5.33341C13.0233 5.33341 10.5011 6.36675 8.43439 8.43341C6.36772 10.5001 5.33439 13.0223 5.33439 16.0001C5.33439 18.9779 6.36772 21.5001 8.43439 23.5667C10.5011 25.6334 13.0233 26.6667 16.0011 26.6667Z" fill="white"/>
</g>
</g>
</svg>
