<svg width="23" height="23" viewBox="0 0 23 23" fill="none" xmlns="http://www.w3.org/2000/svg">
<path d="M22.1309 16.0415C22.6863 16.5984 22.9982 17.3528 22.9982 18.1393C22.9982 18.9258 22.6863 19.6802 22.1309 20.2371L21.2589 21.2424C13.4101 28.7567 -5.68948 9.66186 1.70886 1.78819L2.81094 0.82986C3.36847 0.290009 4.11613 -0.00863445 4.89216 -0.0014606C5.66819 0.00571326 6.4102 0.318128 6.95765 0.868194C6.98736 0.897902 8.76315 3.20461 8.76315 3.20461C9.29007 3.75817 9.58339 4.4935 9.58214 5.25775C9.58089 6.02199 9.28517 6.75636 8.75644 7.30819L7.64669 8.70353C8.26084 10.1958 9.16379 11.5519 10.3037 12.6941C11.4436 13.8363 12.7979 14.742 14.2889 15.3592L15.6929 14.2427C16.2448 13.7144 16.979 13.419 17.743 13.4179C18.507 13.4169 19.2421 13.7102 19.7955 14.2369C19.7955 14.2369 22.1012 16.0118 22.1309 16.0415ZM20.8123 17.4349C20.8123 17.4349 18.519 15.6706 18.4893 15.6409C18.2918 15.4451 18.0251 15.3353 17.747 15.3353C17.469 15.3353 17.2022 15.4451 17.0048 15.6409C16.9789 15.6677 15.046 17.2078 15.046 17.2078C14.9157 17.3115 14.7607 17.3794 14.5962 17.405C14.4317 17.4305 14.2633 17.4128 14.1078 17.3534C12.1762 16.6343 10.4218 15.5084 8.96328 14.0521C7.50479 12.5957 6.37633 10.8429 5.65432 8.91244C5.5903 8.75476 5.56943 8.58286 5.59385 8.41444C5.61827 8.24601 5.6871 8.08712 5.79327 7.95411C5.79327 7.95411 7.33332 6.02019 7.35919 5.99528C7.55495 5.79785 7.66478 5.53108 7.66478 5.25305C7.66478 4.97502 7.55495 4.70825 7.35919 4.51082C7.32948 4.48207 5.56519 2.18686 5.56519 2.18686C5.3648 2.00718 5.10328 1.91095 4.83422 1.9179C4.56516 1.92485 4.30895 2.03445 4.11811 2.22424L3.01602 3.18257C-2.39089 9.6839 14.1605 25.3172 19.8578 19.9333L20.7308 18.927C20.9354 18.7375 21.0583 18.4759 21.0735 18.1974C21.0887 17.919 20.995 17.6455 20.8123 17.4349Z" fill="black"/>
</svg>
