<svg width="28" height="28" viewBox="0 0 28 28" fill="none" xmlns="http://www.w3.org/2000/svg">
<g id="menu-dots-vertical">
<g id="Group">
<path id="Vector" d="M14 8.24996C15.7259 8.24996 17.125 6.85086 17.125 5.12498C17.125 3.3991 15.7259 2 14 2C12.2741 2 10.875 3.3991 10.875 5.12498C10.875 6.85086 12.2741 8.24996 14 8.24996Z" fill="black"/>
<path id="Vector_2" d="M14 16.6428C15.7259 16.6428 17.125 15.2437 17.125 13.5178C17.125 11.7919 15.7259 10.3928 14 10.3928C12.2741 10.3928 10.875 11.7919 10.875 13.5178C10.875 15.2437 12.2741 16.6428 14 16.6428Z" fill="black"/>
<path id="Vector_3" d="M14 25.0355C15.7259 25.0355 17.125 23.6364 17.125 21.9105C17.125 20.1846 15.7259 18.7855 14 18.7855C12.2741 18.7855 10.875 20.1846 10.875 21.9105C10.875 23.6364 12.2741 25.0355 14 25.0355Z" fill="black"/>
</g>
</g>
</svg>
