<svg width="296" height="196" viewBox="0 0 296 196" fill="none" xmlns="http://www.w3.org/2000/svg">
<g clip-path="url(#clip0_862_3465)">
<path d="M138.024 159.848C133.695 138.992 128.284 132.039 128.284 132.039L126.217 130.442L123.73 128.518L123.742 128.27L123.153 128.071L123.014 127.963L122.787 127.79L122.751 127.829L122.674 127.908L111.424 124.098L97.152 119.268L90.5431 110.709C89.4667 109.315 88.081 108.188 86.4945 107.417C84.908 106.646 83.1638 106.252 81.3987 106.265L60.292 106.42C57.4381 106.441 54.6954 107.525 52.603 109.459L38.7299 122.281L17.1129 132.567L17.0764 132.531L16.8494 132.693L13.5094 134.284L13.6472 134.999L11.58 136.485C11.58 136.485 6.16864 142.955 1.83956 162.361C0.738297 167.299 0.196213 177.891 0.000549855 190.944C-0.00927829 191.604 0.112734 192.26 0.359488 192.873C0.606242 193.486 0.972818 194.044 1.4379 194.514C1.90298 194.984 2.45729 195.358 3.0686 195.613C3.6799 195.868 4.33601 196 4.99877 196H120.459L134.87 196C135.532 196 136.188 195.868 136.799 195.613C137.41 195.359 137.964 194.986 138.429 194.516C138.894 194.046 139.261 193.488 139.508 192.876C139.755 192.264 139.877 191.609 139.868 190.949C139.677 176.746 139.135 165.203 138.024 159.848Z" fill="#3F3D56"/>
<path d="M152.838 18.1881C148.346 18.1881 144.038 19.9661 140.862 23.131C137.685 26.2959 135.901 30.5884 135.901 35.0642C135.901 39.54 137.685 43.8325 140.862 46.9974C144.038 50.1623 148.346 51.9403 152.838 51.9403H279.063C283.555 51.9403 287.863 50.1623 291.039 46.9974C294.216 43.8325 296 39.54 296 35.0642C296 30.5884 294.216 26.2959 291.039 23.131C287.863 19.9661 283.555 18.1881 279.063 18.1881H152.838Z" fill="#E5E5E5"/>
<path d="M152.838 21.6034C149.255 21.6034 145.819 23.0216 143.285 25.5459C140.752 28.0703 139.329 31.4941 139.329 35.0641C139.329 38.6341 140.752 42.0579 143.285 44.5822C145.819 47.1066 149.255 48.5248 152.838 48.5248H279.062C282.645 48.5248 286.082 47.1066 288.615 44.5822C291.149 42.0579 292.572 38.6341 292.572 35.0641C292.572 31.4941 291.149 28.0703 288.615 25.5459C286.082 23.0216 282.645 21.6034 279.062 21.6034H152.838Z" fill="white"/>
<path d="M74.1599 98.3639C89.4316 98.3639 101.812 86.0286 101.812 70.8123C101.812 55.5959 89.4316 43.2606 74.1599 43.2606C58.8883 43.2606 46.5081 55.5959 46.5081 70.8123C46.5081 86.0286 58.8883 98.3639 74.1599 98.3639Z" fill="#FBBEBE"/>
<path d="M67.0861 97.0149C66.9679 96.7557 66.8501 96.4957 66.7327 96.2347C66.7779 96.2362 66.8228 96.2427 66.868 96.2439L67.0861 97.0149Z" fill="#2F2E41"/>
<path d="M45.7391 44.5135C47.1377 43.4019 48.7723 42.3791 50.5604 42.4366C52.3484 42.494 54.1617 44.1031 53.7912 45.847C57.0756 40.0529 62.3033 35.5965 68.5567 33.2601C74.8102 30.9237 81.6897 30.8567 87.9878 33.0707C92.432 34.6329 96.7901 37.7583 97.811 42.3424C98.0731 43.5191 98.1293 44.8094 98.8667 45.7649C99.7965 46.9697 101.575 47.2422 103.04 46.8184C103.055 46.8142 103.069 46.8099 103.084 46.8055C103.331 46.7213 103.599 46.7131 103.851 46.7818C104.103 46.8505 104.329 46.993 104.499 47.1909C104.669 47.3889 104.775 47.6331 104.805 47.892C104.834 48.1509 104.784 48.4126 104.663 48.6432L103.405 50.9798C104.99 51.3319 106.637 51.297 108.206 50.8781C108.467 50.81 108.742 50.8239 108.994 50.9179C109.247 51.0119 109.464 51.1814 109.615 51.4031C109.767 51.6248 109.847 51.8879 109.842 52.1563C109.838 52.4247 109.751 52.6852 109.592 52.9021C105.446 58.5742 98.5187 62.2369 91.4497 62.1939C86.4255 62.1633 81.3496 60.438 76.4599 61.5892C74.5683 62.0346 72.8007 62.8962 71.2869 64.111C69.7731 65.3258 68.5514 66.8628 67.7116 68.6094C66.8717 70.3559 66.4349 72.2677 66.4333 74.2044C66.4317 76.141 66.8653 78.0535 67.7023 79.8015C66.2001 78.1644 63.2963 78.552 61.7598 80.1571C60.2233 81.7622 59.8255 84.1579 59.9803 86.3707C60.217 89.7551 61.5479 92.9441 62.9509 96.0479C51.1881 95.679 40.0624 87.4575 36.3175 76.3377C32.5569 65.1713 36.4982 51.8586 45.7391 44.5135Z" fill="#2F2E41"/>
<path opacity="0.2" d="M27.2166 153.552L34.9723 195.596L39.6259 196L27.2166 153.552Z" fill="black"/>
<path opacity="0.2" d="M112.647 150.381L104.892 195.566L100.238 196L112.647 150.381Z" fill="black"/>
<path d="M52.3542 30.3636C50.8671 30.9822 49.3155 30.3042 48.6647 28.7514C48.004 27.1749 48.6211 25.5745 50.132 24.9459C51.643 24.3173 53.167 24.997 53.8384 26.5989C54.4997 28.1768 53.8893 29.7249 52.3542 30.3636ZM49.5056 21.8428L48.3232 22.3348C48.0279 22.4562 47.6975 22.4628 47.3975 22.3531C47.0975 22.2435 46.8498 22.0257 46.7032 21.7427L46.6448 21.6288C45.3725 19.3427 45.2269 16.5643 46.2141 13.375C47.1286 10.5141 47.5085 8.50207 46.7446 6.67926C45.8614 4.57174 43.9754 3.91156 41.5703 4.86791C40.6375 5.256 40.3406 5.24982 39.6066 5.97539C39.4469 6.13514 39.2565 6.26121 39.0469 6.34609C38.8373 6.43097 38.6126 6.47292 38.3864 6.46943C38.1676 6.46687 37.9517 6.42044 37.7514 6.33292C37.551 6.2454 37.3704 6.11858 37.2204 5.96002C36.9312 5.65446 36.7692 5.25097 36.7671 4.83102C36.765 4.41107 36.9229 4.00596 37.2089 3.69751C38.4428 2.41058 39.931 1.39245 41.5796 0.707378C46.7471 -1.44258 49.3484 1.73152 50.5388 4.57205C51.7032 7.3504 51.0482 9.92825 49.9958 13.2668C49.1139 16.041 49.1653 18.0966 50.1671 20.1405C50.2394 20.295 50.2797 20.4625 50.2854 20.6329C50.2911 20.8033 50.2622 20.9731 50.2005 21.1321C50.1387 21.2911 50.0453 21.436 49.9259 21.5582C49.8065 21.6803 49.6635 21.7771 49.5056 21.8428Z" fill="#5470FC"/>
<path d="M180.72 43.1129H155.606C155.526 43.1135 155.447 43.0983 155.373 43.0682C155.299 43.0382 155.232 42.9939 155.175 42.9378C155.119 42.8818 155.074 42.8152 155.043 42.7418C155.012 42.6684 154.997 42.5897 154.997 42.5102C154.997 42.4307 155.012 42.352 155.043 42.2786C155.074 42.2052 155.119 42.1386 155.175 42.0826C155.232 42.0265 155.299 41.9822 155.373 41.9522C155.447 41.9221 155.526 41.9069 155.606 41.9075H180.72C180.879 41.9086 181.032 41.9725 181.145 42.0855C181.257 42.1984 181.32 42.3511 181.32 42.5102C181.32 42.6693 181.257 42.822 181.145 42.9349C181.032 43.0479 180.879 43.1118 180.72 43.1129Z" fill="#5470FC"/>
<path d="M212.578 43.3137H187.464C187.384 43.3143 187.305 43.2991 187.231 43.269C187.158 43.239 187.09 43.1947 187.034 43.1387C186.977 43.0826 186.932 43.016 186.902 42.9426C186.871 42.8692 186.855 42.7905 186.855 42.711C186.855 42.6315 186.871 42.5528 186.902 42.4794C186.932 42.406 186.977 42.3394 187.034 42.2834C187.09 42.2273 187.158 42.183 187.231 42.153C187.305 42.1229 187.384 42.1077 187.464 42.1083H212.578C212.658 42.1077 212.737 42.1229 212.811 42.153C212.885 42.183 212.952 42.2273 213.009 42.2834C213.065 42.3394 213.11 42.406 213.141 42.4794C213.171 42.5528 213.187 42.6315 213.187 42.711C213.187 42.7905 213.171 42.8692 213.141 42.9426C213.11 43.016 213.065 43.0826 213.009 43.1387C212.952 43.1947 212.885 43.239 212.811 43.269C212.737 43.2991 212.658 43.3143 212.578 43.3137Z" fill="#5470FC"/>
<path d="M244.437 43.5147H219.323C219.163 43.5136 219.01 43.4496 218.898 43.3367C218.785 43.2238 218.722 43.0711 218.722 42.9119C218.722 42.7528 218.785 42.6001 218.898 42.4872C219.01 42.3743 219.163 42.3103 219.323 42.3092H244.437C244.516 42.3087 244.596 42.3239 244.669 42.3539C244.743 42.384 244.81 42.4283 244.867 42.4843C244.924 42.5403 244.969 42.6069 244.999 42.6803C245.03 42.7537 245.046 42.8324 245.046 42.9119C245.046 42.9914 245.03 43.0701 244.999 43.1435C244.969 43.2169 244.924 43.2836 244.867 43.3396C244.81 43.3956 244.743 43.4399 244.669 43.47C244.596 43.5 244.516 43.5152 244.437 43.5147Z" fill="#5470FC"/>
<path d="M276.295 43.7156H251.181C251.021 43.7145 250.869 43.6505 250.756 43.5376C250.644 43.4247 250.58 43.272 250.58 43.1128C250.58 42.9537 250.644 42.801 250.756 42.6881C250.869 42.5752 251.021 42.5112 251.181 42.5101H276.295C276.455 42.5112 276.608 42.5752 276.72 42.6881C276.833 42.801 276.896 42.9537 276.896 43.1128C276.896 43.272 276.833 43.4247 276.72 43.5376C276.608 43.6505 276.455 43.7145 276.295 43.7156Z" fill="#5470FC"/>
<path d="M168.107 37.5659C170.685 37.5659 172.775 35.4837 172.775 32.9152C172.775 30.3467 170.685 28.2645 168.107 28.2645C165.53 28.2645 163.44 30.3467 163.44 32.9152C163.44 35.4837 165.53 37.5659 168.107 37.5659Z" fill="#5470FC"/>
<path d="M200.158 37.5659C202.736 37.5659 204.826 35.4837 204.826 32.9152C204.826 30.3467 202.736 28.2645 200.158 28.2645C197.58 28.2645 195.491 30.3467 195.491 32.9152C195.491 35.4837 197.58 37.5659 200.158 37.5659Z" fill="#5470FC"/>
<path d="M232.209 37.5659C234.787 37.5659 236.877 35.4837 236.877 32.9152C236.877 30.3467 234.787 28.2645 232.209 28.2645C229.631 28.2645 227.542 30.3467 227.542 32.9152C227.542 35.4837 229.631 37.5659 232.209 37.5659Z" fill="#5470FC"/>
<path d="M264.26 37.5659C266.838 37.5659 268.928 35.4837 268.928 32.9152C268.928 30.3467 266.838 28.2645 264.26 28.2645C261.682 28.2645 259.593 30.3467 259.593 32.9152C259.593 35.4837 261.682 37.5659 264.26 37.5659Z" fill="#5470FC"/>
</g>
<defs>
<clipPath id="clip0_862_3465">
<rect width="296" height="196" fill="white"/>
</clipPath>
</defs>
</svg>
