<svg width="18" height="17" viewBox="0 0 18 17" fill="none" xmlns="http://www.w3.org/2000/svg">
<path id="search" d="M15.5092 17L11.3293 12.8691C10.7793 13.3091 10.1468 13.6574 9.43188 13.9141C8.71692 14.1707 7.95614 14.2991 7.14953 14.2991C5.15133 14.2991 3.46019 13.607 2.07611 12.2229C0.692038 10.8389 0 9.14773 0 7.14953C0 5.15133 0.692038 3.46019 2.07611 2.07611C3.46019 0.692038 5.15133 0 7.14953 0C9.14773 0 10.8389 0.692038 12.2229 2.07611C13.607 3.46019 14.2991 5.15133 14.2991 7.14953C14.2991 7.95614 14.1707 8.71692 13.9141 9.43188C13.6574 10.1468 13.3091 10.7793 12.8691 11.3293L17.0491 15.4601L15.5092 17ZM7.14953 12.0992C8.52444 12.0992 9.69311 11.618 10.6555 10.6555C11.618 9.69311 12.0992 8.52444 12.0992 7.14953C12.0992 5.77462 11.618 4.60595 10.6555 3.64351C9.69311 2.68107 8.52444 2.19985 7.14953 2.19985C5.77462 2.19985 4.60595 2.68107 3.64351 3.64351C2.68107 4.60595 2.19985 5.77462 2.19985 7.14953C2.19985 8.52444 2.68107 9.69311 3.64351 10.6555C4.60595 11.618 5.77462 12.0992 7.14953 12.0992Z" fill="white"/>
</svg>
