<svg width="43" height="42" viewBox="0 0 43 42" fill="none" xmlns="http://www.w3.org/2000/svg">
<g id="Group 6">
<rect id="Rectangle 8" x="0.683594" y="0.953735" width="42" height="41" rx="10" fill="#282727"/>
<path id="Vector" d="M21.1524 8.95374C14.6533 8.95374 9.31015 13.886 8.68359 20.2042L15.0582 23.459C15.7018 22.9192 16.5387 22.5901 17.4501 22.5901H17.479C17.7011 22.2492 17.9566 21.8226 18.2244 21.3794C18.7826 20.4646 19.4092 19.4305 20.0244 18.635C20.1611 16.0952 22.2746 14.0674 24.8548 14.0674C27.5262 14.0674 29.6964 16.2321 29.6964 18.8969C29.6964 21.4708 27.6635 23.579 25.1174 23.7154C24.3199 24.329 23.2889 24.9542 22.3662 25.5054C21.9219 25.7781 21.4942 26.0328 21.1524 26.2544V26.2833C21.1524 28.3231 19.4949 29.9765 17.4501 29.9765C15.4052 29.9765 13.7477 28.3231 13.7477 26.2833C13.7477 26.1867 13.7531 26.0958 13.7588 25.9992L8.78038 23.4535C9.743 29.408 14.9153 33.9537 21.1524 33.9537C28.0731 33.9537 33.6836 28.3571 33.6836 21.4537C33.6836 14.5503 28.0731 8.95374 21.1524 8.95374ZM24.8548 15.2037C22.8157 15.2037 21.1524 16.8628 21.1524 18.8969C21.1524 20.931 22.8157 22.5901 24.8548 22.5901C26.894 22.5901 28.5572 20.931 28.5572 18.8969C28.5572 16.8628 26.894 15.2037 24.8548 15.2037ZM24.8548 16.3401C26.2731 16.3401 27.418 17.4821 27.418 18.8969C27.418 20.3117 26.2731 21.4537 24.8548 21.4537C23.4365 21.4537 22.2916 20.3117 22.2916 18.8969C22.2916 17.4821 23.4365 16.3401 24.8548 16.3401ZM17.4501 23.7265C17.0001 23.7265 16.5731 23.8403 16.2085 24.0505L18.0998 25.016C18.8004 25.3739 19.0737 26.2325 18.7205 26.9314C18.4642 27.42 17.9684 27.7037 17.4501 27.7037C17.2279 27.7037 17.0111 27.6529 16.8004 27.5506L14.9036 26.5785C15.0517 27.8512 16.1343 28.8401 17.4501 28.8401C18.8684 28.8401 20.0132 27.6981 20.0132 26.2833C20.0132 24.8685 18.8684 23.7265 17.4501 23.7265Z" fill="white"/>
</g>
</svg>
