<svg width="294" height="172" viewBox="0 0 294 172" fill="none" xmlns="http://www.w3.org/2000/svg">
<g clip-path="url(#clip0_0_432)">
<path d="M7.9299 171.038C7.9299 171.295 8.13652 171.502 8.39382 171.502H292.708C292.965 171.502 293.172 171.295 293.172 171.038C293.172 170.781 292.965 170.575 292.708 170.575H8.39382C8.13652 170.575 7.9299 170.781 7.9299 171.038Z" fill="#5571FF"/>
<path d="M97.6657 72.9541H6.47966C3.00219 72.9541 0.171875 70.1277 0.171875 66.6551C0.171875 63.1825 3.00219 60.3561 6.47966 60.3561H97.6657C101.143 60.3561 103.973 63.1825 103.973 66.6551C103.973 70.1277 101.143 72.9541 97.6657 72.9541ZM6.47966 61.1348C3.43103 61.1348 0.951576 63.6107 0.951576 66.6551C0.951576 69.6995 3.43103 72.1755 6.47966 72.1755H97.6657C100.714 72.1755 103.194 69.6995 103.194 66.6551C103.194 63.6107 100.714 61.1348 97.6657 61.1348H6.47966Z" fill="#E2E3E4"/>
<path d="M71.2299 49.4998H8.42502C5.05281 49.4998 2.31216 46.763 2.31216 43.3955C2.31216 40.028 5.05281 37.2911 8.42502 37.2911H71.2299C74.6021 37.2911 77.3428 40.028 77.3428 43.3955C77.3428 46.763 74.6021 49.4998 71.2299 49.4998Z" fill="#E2E3E4"/>
<path d="M97.6657 26.4348H6.47966C3.00219 26.4348 0.171875 23.6084 0.171875 20.1358C0.171875 16.6632 3.00219 13.8368 6.47966 13.8368H97.6657C101.143 13.8368 103.973 16.6632 103.973 20.1358C103.973 23.6084 101.143 26.4348 97.6657 26.4348ZM6.47966 14.6154C3.43103 14.6154 0.951576 17.0914 0.951576 20.1358C0.951576 23.1802 3.43103 25.6562 6.47966 25.6562H97.6657C100.714 25.6562 103.194 23.1802 103.194 20.1358C103.194 17.0914 100.714 14.6154 97.6657 14.6154H6.47966Z" fill="#E2E3E4"/>
<path d="M3.34527 55.8324H27.2431C27.8123 55.8324 28.2762 56.2918 28.2762 56.8641C28.2762 57.4325 27.8123 57.8957 27.2431 57.8957H3.34527C2.77609 57.8957 2.31216 57.4363 2.31216 56.8641C2.31216 56.2957 2.77609 55.8324 3.34527 55.8324Z" fill="#E2E3E4"/>
<path d="M3.34527 9.89697H27.2431C27.8123 9.89697 28.2762 10.3564 28.2762 10.9247C28.2762 11.4931 27.8123 11.9564 27.2431 11.9564H3.34527C2.77609 11.9564 2.31216 11.497 2.31216 10.9286C2.31216 10.3602 2.77609 9.89697 3.34527 9.89697Z" fill="#E2E3E4"/>
<path d="M3.34527 85.3159H27.2431C27.8123 85.3159 28.2762 85.7752 28.2762 86.3475C28.2762 86.9159 27.8123 87.3753 27.2431 87.3753H3.34527C2.77609 87.3753 2.31216 86.9159 2.31216 86.3436C2.31216 85.7752 2.77609 85.3159 3.34527 85.3159Z" fill="#E2E3E4"/>
<path d="M183.513 33.5274L175.951 36.0131V25.1416H182.813L183.513 33.5274Z" fill="#E2ABAB"/>
<path d="M175.616 28.7326C179.311 27.4804 184.423 24.7818 184.423 20.6261C184.423 16.4703 181.049 13.1014 176.888 13.1014C172.726 13.1014 169.353 16.4703 169.353 20.6261C169.353 24.7818 171.455 28.7326 175.616 28.7326Z" fill="#FBBEBE"/>
<path d="M178.958 19.8797C177.696 19.8426 176.868 18.5693 176.377 17.4075C175.887 16.2457 175.383 14.9117 174.213 14.4321C173.256 14.0404 171.568 16.6916 170.814 15.9857C170.026 15.2494 170.793 11.4702 171.629 10.7914C172.464 10.1126 173.607 9.98085 174.683 9.93019C177.307 9.80861 179.949 10.0214 182.522 10.5584C184.115 10.8893 185.752 11.3892 186.902 12.5375C188.356 13.9965 188.728 16.1951 188.833 18.2519C188.941 20.3559 188.82 22.5579 187.795 24.3986C186.77 26.2392 184.626 27.5969 182.57 27.1274C182.363 26.0129 182.573 24.868 182.654 23.7332C182.732 22.6018 182.651 21.3793 181.958 20.4775C181.268 19.5758 179.786 19.2178 178.981 20.0182" fill="#5571FF"/>
<path d="M188.228 22.487C188.982 21.9365 189.885 21.4739 190.812 21.5887C191.813 21.7103 192.662 22.5343 192.919 23.5104C193.176 24.4864 192.888 25.5604 192.266 26.3574C191.647 27.1545 190.724 27.6813 189.75 27.9448C189.185 28.0967 188.566 28.1609 188.028 27.9313C187.237 27.5902 186.807 26.5803 187.118 25.7765" fill="#5571FF"/>
<path d="M129.774 42.0642C127.342 41.3929 125.025 42.16 124.6 43.7717C124.175 45.3834 125.805 47.2338 128.238 47.9018C129.207 48.1816 131.411 47.2604 132.401 47.05L149.263 53.5792L169.456 56.8677L169.456 50.0522L150.439 49.1902L133.542 43.7717C132.791 43.0797 130.748 42.3207 129.771 42.064L129.774 42.0642Z" fill="#FBBEBE"/>
<path d="M176.282 31.0248H170.963C167.202 31.5955 166.18 33.5983 165.325 37.2998C164.019 42.9467 162.352 50.4645 162.683 50.576C163.214 50.7516 172.271 55.007 176.888 54.0343L176.282 31.0248Z" fill="#E2E3E4"/>
<path d="M181.014 154.469H173.932V164.503H181.014V154.469Z" fill="#9F616A"/>
<path d="M167.036 170.575C166.292 170.575 165.629 170.558 165.129 170.511C163.248 170.339 161.452 168.951 160.549 168.14C160.144 167.775 160.015 167.194 160.225 166.694C160.377 166.336 160.678 166.066 161.053 165.962L166.025 164.543L174.074 159.119L174.165 159.281C174.199 159.342 174.991 160.764 175.254 161.723C175.356 162.088 175.329 162.392 175.177 162.628C175.072 162.79 174.923 162.885 174.805 162.939C174.95 163.091 175.407 163.402 176.813 163.625C178.866 163.949 179.299 161.824 179.316 161.737L179.33 161.666L179.391 161.625C180.368 160.997 180.97 160.71 181.176 160.771C181.305 160.808 181.521 160.875 182.106 166.661C182.164 166.843 182.573 168.174 182.296 169.447C181.995 170.832 175.934 170.355 174.72 170.247C174.686 170.251 170.148 170.575 167.039 170.575H167.036Z" fill="#A63838"/>
<path d="M201.18 146.585L195.17 150.328L200.488 158.842L206.497 155.099L201.18 146.585Z" fill="#9F616A"/>
<path d="M193.199 169.2C192.367 169.2 191.603 169.099 191.059 169.005C190.524 168.91 190.105 168.484 190.017 167.951C189.956 167.566 190.068 167.177 190.331 166.89L193.798 163.061L197.755 154.205L197.917 154.293C197.978 154.327 199.402 155.114 200.136 155.789C200.417 156.046 200.555 156.319 200.548 156.6C200.545 156.796 200.471 156.951 200.396 157.062C200.599 157.116 201.15 157.137 202.463 156.583C204.377 155.776 203.619 153.743 203.585 153.658L203.558 153.591L203.589 153.526C204.086 152.476 204.441 151.915 204.651 151.858C204.783 151.821 204.999 151.763 208.56 156.367C208.706 156.488 209.758 157.404 210.197 158.63C210.674 159.964 205.28 162.763 204.194 163.31C204.16 163.337 198.516 167.434 196.196 168.599C195.276 169.062 194.187 169.204 193.196 169.204L193.199 169.2Z" fill="#A63838"/>
<path d="M186.229 70.5596H166.4L164.601 88.9794L172.474 157.039H182.597L178.548 117.73L194.968 153.219L203.964 146.931L191.143 113.799C191.143 113.799 195.722 84.9368 192.124 77.7465C188.525 70.5596 186.229 70.5596 186.229 70.5596Z" fill="#696977"/>
<path d="M196.094 71.6808H164.601L174.05 31.0248H187.771L196.094 71.6808Z" fill="#E2E3E4"/>
<path d="M198.928 93.2854C199.432 95.7576 198.509 98.017 196.872 98.3311C195.235 98.6452 193.5 96.8923 193 94.4202C192.787 93.434 192.821 92.414 193.098 91.4414L186.865 52.6868L194.66 51.2211L197.67 90.5667C198.31 91.3637 198.739 92.2958 198.928 93.2888V93.2854Z" fill="#FBBEBE"/>
<path d="M182.451 31.0248H187.771C191.532 31.5955 192.553 33.5983 193.409 37.2998C194.715 42.9467 196.382 50.4645 196.05 50.576C195.519 50.7516 186.462 55.007 181.846 54.0343L182.451 31.0248Z" fill="#E2E3E4"/>
</g>
<defs>
<clipPath id="clip0_0_432">
<rect width="293" height="171" fill="white" transform="translate(0.171875 0.0969238)"/>
</clipPath>
</defs>
</svg>
