<svg width="31" height="31" viewBox="0 0 31 31" fill="none" xmlns="http://www.w3.org/2000/svg">
<g id="ci:house-01">
<path id="Vector" d="M25.8098 21.5677V14.6327C25.8098 13.9652 25.8098 13.6315 25.7286 13.3202C25.6567 13.0451 25.5383 12.7843 25.3786 12.549C25.1973 12.2827 24.9473 12.0615 24.4436 11.6227L18.4436 6.37274C17.5111 5.55649 17.0436 5.14774 16.5186 4.99274C16.0561 4.85524 15.5636 4.85524 15.0998 4.99274C14.5748 5.14774 14.1098 5.55524 13.1773 6.37024L7.17606 11.6227C6.67356 12.0627 6.42231 12.2827 6.24231 12.5477C6.08206 12.7833 5.96327 13.0446 5.89106 13.3202C5.80981 13.6302 5.80981 13.9652 5.80981 14.6327V21.5677C5.80981 22.7327 5.80981 23.3152 5.99981 23.774C6.12531 24.0774 6.30935 24.3531 6.54141 24.5854C6.77348 24.8177 7.04902 25.002 7.35231 25.1277C7.81231 25.3177 8.39481 25.3177 9.55981 25.3177C10.7248 25.3177 11.3073 25.3177 11.7673 25.1277C12.0706 25.002 12.3462 24.8177 12.5782 24.5854C12.8103 24.3531 12.9943 24.0774 13.1198 23.774C13.3098 23.3152 13.3098 22.7327 13.3098 21.5677V20.3177C13.3098 19.6547 13.5732 19.0188 14.042 18.55C14.5109 18.0811 15.1468 17.8177 15.8098 17.8177C16.4729 17.8177 17.1087 18.0811 17.5776 18.55C18.0464 19.0188 18.3098 19.6547 18.3098 20.3177V21.5677C18.3098 22.7327 18.3098 23.3152 18.4998 23.774C18.6253 24.0774 18.8093 24.3531 19.0414 24.5854C19.2735 24.8177 19.549 25.002 19.8523 25.1277C20.3123 25.3177 20.8948 25.3177 22.0598 25.3177C23.2248 25.3177 23.8073 25.3177 24.2673 25.1277C24.5706 25.002 24.8462 24.8177 25.0782 24.5854C25.3103 24.3531 25.4943 24.0774 25.6198 23.774C25.8098 23.3152 25.8098 22.7327 25.8098 21.5677Z" stroke="black" stroke-width="3" stroke-linecap="round" stroke-linejoin="round"/>
</g>
</svg>
