<svg width="31" height="31" viewBox="0 0 31 31" fill="none" xmlns="http://www.w3.org/2000/svg">
<g id="ci:user-square">
<path id="Vector" d="M22.0598 26.5677C22.0598 24.9101 21.4013 23.3204 20.2292 22.1483C19.0571 20.9762 17.4674 20.3177 15.8098 20.3177C14.1522 20.3177 12.5625 20.9762 11.3904 22.1483C10.2183 23.3204 9.55981 24.9101 9.55981 26.5677M22.0598 26.5677H23.0636C24.4611 26.5677 25.1598 26.5677 25.6936 26.2952C26.1646 26.0555 26.5475 25.6725 26.7873 25.2015C27.0598 24.6677 27.0598 23.969 27.0598 22.5715V8.064C27.0598 6.6665 27.0598 5.9665 26.7873 5.43275C26.5472 4.96223 26.1644 4.57979 25.6936 4.34025C25.1598 4.06775 24.4598 4.06775 23.0598 4.06775H8.55981C7.15981 4.06775 6.45981 4.06775 5.92481 4.34025C5.45438 4.57986 5.07192 4.96231 4.83231 5.43275C4.55981 5.96775 4.55981 6.66775 4.55981 8.06775V22.5677C4.55981 23.9677 4.55981 24.6677 4.83231 25.2015C5.07231 25.6727 5.45356 26.0552 5.92481 26.2952C6.45856 26.5677 7.15856 26.5677 8.55606 26.5677H9.55981M22.0598 26.5677H9.55981M15.8098 16.5677C14.8153 16.5677 13.8614 16.1727 13.1582 15.4694C12.4549 14.7661 12.0598 13.8123 12.0598 12.8177C12.0598 11.8232 12.4549 10.8694 13.1582 10.1661C13.8614 9.46284 14.8153 9.06775 15.8098 9.06775C16.8044 9.06775 17.7582 9.46284 18.4615 10.1661C19.1647 10.8694 19.5598 11.8232 19.5598 12.8177C19.5598 13.8123 19.1647 14.7661 18.4615 15.4694C17.7582 16.1727 16.8044 16.5677 15.8098 16.5677Z" stroke="black" stroke-width="3" stroke-linecap="round" stroke-linejoin="round"/>
</g>
</svg>
