<svg width="26" height="26" viewBox="0 0 26 26" fill="none" xmlns="http://www.w3.org/2000/svg">
<g id="Group">
<path id="Vector" d="M13.043 24.9363C19.5604 24.9363 24.8438 19.6529 24.8438 13.1355C24.8438 6.61811 19.5604 1.33472 13.043 1.33472C6.52558 1.33472 1.24219 6.61811 1.24219 13.1355C1.24219 19.6529 6.52558 24.9363 13.043 24.9363Z" stroke="black" stroke-width="2"/>
<path id="Vector_2" d="M8.35449 16.21V16.21C10.4552 19.742 15.5913 19.7179 17.7319 16.21V16.21" stroke="black" stroke-width="2" stroke-linecap="round"/>
<path id="Vector_3" d="M18.2276 9.52171C18.322 10.8211 17.6955 11.9267 16.8293 11.9897C15.963 12.0526 15.1834 11.0491 15.089 9.74971C14.9946 8.45032 15.621 7.34468 16.4873 7.28175C17.3535 7.21883 18.1332 8.22233 18.2276 9.52171Z" fill="black"/>
<path id="Vector_4" d="M9.25748 11.9823C10.1245 12.0401 10.8978 11.0327 10.9845 9.7321C11.0713 8.43151 10.4387 7.33029 9.57166 7.27245C8.7046 7.21461 7.93138 8.22206 7.84462 9.52265C7.75786 10.8232 8.39042 11.9245 9.25748 11.9823Z" fill="black"/>
</g>
</svg>
