<svg width="20" height="25" viewBox="0 0 20 25" fill="none" xmlns="http://www.w3.org/2000/svg">
<path id="Vector" d="M2.12569 11.3826L7.51629 3.68403C8.40178 2.41942 9.75337 1.55836 11.2737 1.29028C12.7941 1.0222 14.3587 1.36906 15.6233 2.25455C16.8879 3.14004 17.7489 4.49163 18.017 6.01198C18.2851 7.53233 17.9382 9.09693 17.0527 10.3615L8.29033 21.9867C7.9979 22.4041 7.62613 22.7599 7.19623 23.0336C6.76633 23.3073 6.28673 23.4937 5.7848 23.5821C5.28287 23.6705 4.76845 23.6591 4.2709 23.5487C3.77336 23.4383 3.30244 23.2309 2.88503 22.9385C2.46761 22.6461 2.11188 22.2743 1.83815 21.8444C1.56442 21.4145 1.37804 20.9349 1.28966 20.433C1.20128 19.931 1.21262 19.4166 1.32305 18.9191C1.43347 18.4215 1.64082 17.9506 1.93324 17.5332L10.704 5.89603C11.0047 5.48538 11.4549 5.21057 11.9572 5.12855C12.4594 5.04653 12.9738 5.16515 13.3895 5.45882C13.8051 5.7525 14.0888 6.19774 14.1792 6.69857C14.2697 7.1994 14.1598 7.71574 13.8732 8.13628L5.67842 19.8396M10.6948 5.91079L10.7053 5.8958" stroke="black" stroke-width="2" stroke-linecap="round" stroke-linejoin="round"/>
</svg>
