<svg width="36" height="36" viewBox="0 0 36 36" fill="none" xmlns="http://www.w3.org/2000/svg">
<g id="ci:users">
<path id="Vector" d="M31.4348 29.4844C31.4348 26.944 28.9994 24.7842 25.6015 23.9821M22.6848 29.4844C22.6848 26.2615 18.7677 23.6511 13.9348 23.6511C9.1019 23.6511 5.18481 26.2615 5.18481 29.4844M22.6848 19.2761C24.2319 19.2761 25.7156 18.6615 26.8096 17.5675C27.9036 16.4736 28.5181 14.9898 28.5181 13.4427C28.5181 11.8956 27.9036 10.4119 26.8096 9.31795C25.7156 8.22399 24.2319 7.60941 22.6848 7.60941M13.9348 19.2761C12.3877 19.2761 10.904 18.6615 9.81002 17.5675C8.71606 16.4736 8.10148 14.9898 8.10148 13.4427C8.10148 11.8956 8.71606 10.4119 9.81002 9.31795C10.904 8.22399 12.3877 7.60941 13.9348 7.60941C15.4819 7.60941 16.9656 8.22399 18.0596 9.31795C19.1536 10.4119 19.7681 11.8956 19.7681 13.4427C19.7681 14.9898 19.1536 16.4736 18.0596 17.5675C16.9656 18.6615 15.4819 19.2761 13.9348 19.2761Z" stroke="black" stroke-width="3" stroke-linecap="round" stroke-linejoin="round"/>
</g>
</svg>
