<svg width="26" height="20" viewBox="0 0 26 20" fill="none" xmlns="http://www.w3.org/2000/svg">
<g id="&#208;&#160;&#208;&#181;&#209;&#129;&#209;&#131;&#209;&#128;&#209;&#129; 3 1" clip-path="url(#clip0_0_1143)">
<g id="&#208;&#161;&#208;&#187;&#208;&#190;&#208;&#185; 1">
<g id="Group">
<g id="Group_2">
<path id="Vector" d="M2.15409 2.39317C-0.775368 5.35247 0.291138 11.2278 4.53619 15.5161C8.78125 19.8044 14.5973 20.8818 17.5268 17.9225C20.4563 14.9632 19.3898 9.08785 15.1447 4.79954C10.8996 0.511237 5.08355 -0.566135 2.15409 2.39317Z" fill="white"/>
<path id="Vector_2" d="M10.8513 4.85708C6.60495 9.14409 5.53811 15.0176 8.46848 17.9761C11.3988 20.9345 17.2167 19.8574 21.4631 15.5704C25.7095 11.2834 26.7763 5.40985 23.846 2.45144C20.9156 -0.506962 15.0977 0.570081 10.8513 4.85708Z" fill="white"/>
</g>
<g id="Group_3">
<path id="Vector_3" d="M18.1595 12.3691H20.4014V5.57497H18.1595V12.3691Z" fill="#282727"/>
<path id="Vector_4" d="M15.9175 7.83965V10.1044H22.6431V7.83965H15.9175Z" fill="#282727"/>
</g>
<path id="Vector_5" d="M9.56825 7.53472C10.083 7.2372 10.2584 6.56909 9.96008 6.04244C9.66176 5.5158 9.00266 5.33005 8.48793 5.62757L4.75997 7.78237C4.24524 8.07989 4.06981 8.74801 4.36813 9.27465C4.66646 9.8013 5.32556 9.98704 5.84029 9.68953L9.56825 7.53472Z" fill="#282727"/>
<path id="Vector_6" d="M10.9965 10.4468C11.5112 10.1493 11.6866 9.4812 11.3883 8.95455C11.09 8.42791 10.4309 8.24216 9.91615 8.53968L6.18819 10.6945C5.67346 10.992 5.49804 11.6601 5.79636 12.1868C6.09468 12.7134 6.75378 12.8992 7.26851 12.6016L10.9965 10.4468Z" fill="#282727"/>
</g>
</g>
</g>
<defs>
<clipPath id="clip0_0_1143">
<rect width="25" height="18.9286" fill="white" transform="matrix(-1 0 0 -1 25.5 19.6494)"/>
</clipPath>
</defs>
</svg>
