<svg width="41" height="42" viewBox="0 0 41 42" fill="none" xmlns="http://www.w3.org/2000/svg">
<g clip-path="url(#clip0_0_526)">
<g clip-path="url(#clip1_0_526)">
<path d="M17.393 3.86144C26.8557 3.71964 34.633 10.3817 34.7583 18.7367C34.8219 22.9848 32.8885 26.8446 29.7371 29.6409C30.4924 33.6539 35.021 35.2271 34.7294 36.3394C30.731 38.0666 22.6942 34.3195 21.4782 33.7367C20.3111 33.9789 19.0901 34.107 17.8465 34.1256C8.38369 34.2674 0.606368 27.6054 0.481167 19.2503C0.355965 10.8953 7.93018 4.00324 17.393 3.86144Z" fill="#282727"/>
</g>
</g>
<defs>
<clipPath id="clip0_0_526">
<rect width="40" height="40" fill="white" transform="matrix(0.00749194 0.999972 0.999972 -0.00749194 0 1.15039)"/>
</clipPath>
<clipPath id="clip1_0_526">
<rect width="34.7826" height="34.7826" fill="white" transform="matrix(-0.999888 0.0149835 0.0149835 0.999888 34.7787 3.35004)"/>
</clipPath>
</defs>
</svg>
