<svg width="25" height="26" viewBox="0 0 25 26" fill="none" xmlns="http://www.w3.org/2000/svg">
<g id="Frame" clip-path="url(#clip0_0_1353)">
<path id="Vector" d="M13.0325 25.7468C6.25333 25.7468 0.737305 20.2329 0.737305 13.4537C0.737305 6.67458 6.25333 1.16064 13.0325 1.16064C16.1037 1.16064 19.0433 2.2985 21.3128 4.36545L21.7262 4.74334L17.6716 8.79789L17.2958 8.47637C16.1058 7.45751 14.5921 6.89589 13.0325 6.89589C9.41639 6.89589 6.47256 9.83763 6.47256 13.4537C6.47256 17.0699 9.41639 20.0116 13.0325 20.0116C15.6402 20.0116 17.7009 18.6796 18.6717 16.4101H12.498V10.8753L24.551 10.892L24.6408 11.3158C25.2692 14.2993 24.7661 18.6879 22.2189 21.828C20.1102 24.4273 17.0202 25.7468 13.0325 25.7468Z" fill="white"/>
</g>
<defs>
<clipPath id="clip0_0_1353">
<rect width="25" height="25" fill="white" transform="translate(0 0.953735)"/>
</clipPath>
</defs>
</svg>
