<svg width="41" height="42" viewBox="0 0 41 42" fill="none" xmlns="http://www.w3.org/2000/svg">
<g id="Group 5">
<rect id="Rectangle 7" y="0.953735" width="41" height="41" rx="10" fill="#282727"/>
<path id="Vector" d="M17.0259 10.9574C17.0259 10.9574 12.8734 11.2275 10.1577 13.2924C10.145 13.2972 10.1297 13.3044 10.117 13.3117C9.64567 13.7242 9.29156 14.3634 8.85339 15.2801C8.41522 16.1967 7.95157 17.3763 7.52868 18.6958C6.68544 21.3372 6.00016 24.5792 6.00016 27.6306C5.99761 27.7392 6.02563 27.8453 6.08168 27.9394C7.03446 29.5242 8.78715 30.4819 10.4227 31.0849C12.0582 31.688 13.5689 31.9292 14.3357 31.9533C14.5522 31.9606 14.7586 31.8665 14.8859 31.7025L16.4756 29.6183C17.757 29.9054 19.26 30.1008 21 30.1008C22.74 30.1008 24.243 29.9054 25.5244 29.6183L27.1141 31.7025C27.2414 31.8665 27.4478 31.9606 27.6643 31.9533C28.4311 31.9292 29.9418 31.688 31.5773 31.0849C33.2128 30.4819 34.9655 29.5242 35.9183 27.9394C35.9744 27.8453 36.0024 27.7392 35.9998 27.6306C35.9998 24.5792 35.3146 21.3372 34.4713 18.6958C34.0484 17.3763 33.5848 16.1967 33.1466 15.2801C32.7084 14.3634 32.3543 13.7242 31.883 13.3117C31.8703 13.3044 31.855 13.2972 31.8423 13.2924C29.1266 11.2275 24.9741 10.9574 24.9741 10.9574C24.9257 10.9525 24.8799 10.9525 24.8315 10.9574C24.6048 10.9863 24.4137 11.1262 24.322 11.324C24.322 11.324 24.1003 11.7847 23.9551 12.4433C22.6839 12.2503 21.614 12.1924 21 12.1924C20.386 12.1924 19.3161 12.2503 18.0449 12.4433C17.8997 11.7847 17.678 11.324 17.678 11.324C17.5659 11.0828 17.3035 10.9356 17.0259 10.9574ZM16.6183 12.2889C16.6667 12.4143 16.6998 12.5325 16.7405 12.6749C15.2706 12.9981 13.6606 13.5264 12.155 14.4117C11.9181 14.5057 11.7627 14.7228 11.755 14.9665C11.7499 15.2077 11.8951 15.432 12.1244 15.5382C12.3562 15.6419 12.6314 15.6105 12.8275 15.4537C15.8489 13.6808 19.6931 13.4275 21 13.4275C22.3069 13.4275 26.1511 13.6808 29.1725 15.4537C29.3686 15.6105 29.6438 15.6419 29.8756 15.5382C30.1049 15.432 30.2501 15.2077 30.245 14.9665C30.2373 14.7228 30.0819 14.5057 29.845 14.4117C28.3394 13.5264 26.7294 12.9981 25.2595 12.6749C25.3002 12.5325 25.3333 12.4143 25.3817 12.2889C26.1256 12.3757 29.0171 12.7448 30.9863 14.2187C31.1137 14.3296 31.557 14.9472 31.9646 15.8011C32.3722 16.655 32.8001 17.7671 33.2078 19.0431C34.0026 21.5325 34.6446 24.6033 34.6751 27.4184C33.9338 28.5545 32.5428 29.3988 31.1086 29.9271C29.8043 30.4071 28.5865 30.6218 27.9497 30.6797L26.8491 29.271C27.4096 29.0997 27.914 28.9139 28.3573 28.7306C30.003 28.0455 30.8844 27.3219 30.8844 27.3219C31.1544 27.0927 31.1774 26.6995 30.9354 26.4438C30.6933 26.1881 30.2781 26.1664 30.0081 26.3956C30.0081 26.3956 29.3253 26.9866 27.8274 27.6113C27.2771 27.8405 26.6097 28.0673 25.8505 28.2675C25.6747 28.2482 25.4989 28.2964 25.3614 28.4026C24.1462 28.6824 22.7017 28.8657 21 28.8657C19.2855 28.8657 17.8385 28.6655 16.6183 28.3833C16.4807 28.2964 16.3125 28.2602 16.1495 28.2868C15.3878 28.0866 14.7254 27.8405 14.1726 27.6113C12.6747 26.9866 11.9919 26.3956 11.9919 26.3956C11.8442 26.2653 11.6404 26.2098 11.4417 26.2412C11.1895 26.2774 10.9806 26.4487 10.9118 26.6826C10.8405 26.9142 10.922 27.1651 11.1156 27.3219C11.1156 27.3219 11.997 28.0455 13.6427 28.7306C14.086 28.9139 14.5904 29.0997 15.1509 29.271L14.0503 30.6797C13.4135 30.6218 12.1957 30.4071 10.8914 29.9271C9.45715 29.3988 8.0662 28.5545 7.32487 27.4184C7.35544 24.6033 7.99742 21.5325 8.79225 19.0431C9.19985 17.7671 9.62784 16.655 10.0354 15.8011C10.443 14.9472 10.8863 14.3296 11.0137 14.2187C12.9829 12.7448 15.8744 12.3757 16.6183 12.2889ZM16.7609 19.6028C15.0974 19.6028 13.8262 21.0332 13.8262 22.6904C13.8262 24.3476 15.0974 25.7781 16.7609 25.7781C18.4244 25.7781 19.6957 24.3476 19.6957 22.6904C19.6957 21.0332 18.4244 19.6028 16.7609 19.6028ZM25.2391 19.6028C23.5756 19.6028 22.3043 21.0332 22.3043 22.6904C22.3043 24.3476 23.5756 25.7781 25.2391 25.7781C26.9026 25.7781 28.1738 24.3476 28.1738 22.6904C28.1738 21.0332 26.9026 19.6028 25.2391 19.6028ZM16.7609 20.8378C17.6194 20.8378 18.3913 21.6194 18.3913 22.6904C18.3913 23.7614 17.6194 24.543 16.7609 24.543C15.9024 24.543 15.1305 23.7614 15.1305 22.6904C15.1305 21.6194 15.9024 20.8378 16.7609 20.8378ZM25.2391 20.8378C26.0976 20.8378 26.8695 21.6194 26.8695 22.6904C26.8695 23.7614 26.0976 24.543 25.2391 24.543C24.3806 24.543 23.6087 23.7614 23.6087 22.6904C23.6087 21.6194 24.3806 20.8378 25.2391 20.8378Z" fill="white"/>
</g>
</svg>
