<svg width="42" height="42" viewBox="0 0 42 42" fill="none" xmlns="http://www.w3.org/2000/svg">
<g id="Group 6">
<rect id="Rectangle 8" y="0.953735" width="42" height="41" rx="10" fill="#282727"/>
<path id="Vector" d="M20.4689 8.95374C13.9697 8.95374 8.62656 13.886 8 20.2042L14.3746 23.459C15.0182 22.9192 15.8551 22.5901 16.7665 22.5901H16.7954C17.0175 22.2492 17.2731 21.8226 17.5408 21.3794C18.099 20.4646 18.7256 19.4305 19.3408 18.635C19.4775 16.0952 21.591 14.0674 24.1712 14.0674C26.8426 14.0674 29.0128 16.2321 29.0128 18.8969C29.0128 21.4708 26.9799 23.579 24.4338 23.7154C23.6363 24.329 22.6053 24.9542 21.6826 25.5054C21.2383 25.7781 20.8106 26.0328 20.4689 26.2544V26.2833C20.4689 28.3231 18.8113 29.9765 16.7665 29.9765C14.7216 29.9765 13.0641 28.3231 13.0641 26.2833C13.0641 26.1867 13.0695 26.0958 13.0752 25.9992L8.09679 23.4535C9.05941 29.408 14.2318 33.9537 20.4689 33.9537C27.3895 33.9537 33 28.3571 33 21.4537C33 14.5503 27.3895 8.95374 20.4689 8.95374ZM24.1712 15.2037C22.1321 15.2037 20.4689 16.8628 20.4689 18.8969C20.4689 20.931 22.1321 22.5901 24.1712 22.5901C26.2104 22.5901 27.8736 20.931 27.8736 18.8969C27.8736 16.8628 26.2104 15.2037 24.1712 15.2037ZM24.1712 16.3401C25.5895 16.3401 26.7344 17.4821 26.7344 18.8969C26.7344 20.3117 25.5895 21.4537 24.1712 21.4537C22.7529 21.4537 21.608 20.3117 21.608 18.8969C21.608 17.4821 22.7529 16.3401 24.1712 16.3401ZM16.7665 23.7265C16.3165 23.7265 15.8895 23.8403 15.5249 24.0505L17.4162 25.016C18.1168 25.3739 18.3901 26.2325 18.0369 26.9314C17.7806 27.42 17.2848 27.7037 16.7665 27.7037C16.5443 27.7037 16.3275 27.6529 16.1168 27.5506L14.22 26.5785C14.3681 27.8512 15.4507 28.8401 16.7665 28.8401C18.1848 28.8401 19.3297 27.6981 19.3297 26.2833C19.3297 24.8685 18.1848 23.7265 16.7665 23.7265Z" fill="white"/>
</g>
</svg>
