<svg width="40" height="31" viewBox="0 0 40 31" fill="none" xmlns="http://www.w3.org/2000/svg">
<g id="&#208;&#160;&#208;&#181;&#209;&#129;&#209;&#131;&#209;&#128;&#209;&#129; 3 1" clip-path="url(#clip0_0_254)">
<g id="&#208;&#161;&#208;&#187;&#208;&#190;&#208;&#185; 1">
<g id="Group">
<g id="Group_2">
<path id="Vector" d="M37.3471 27.6658C42.0342 22.9756 40.3278 13.6637 33.5357 6.86714C26.7436 0.0705747 17.4379 -1.63695 12.7507 3.05326C8.06359 7.74348 9.76999 17.0554 16.5621 23.8519C23.3542 30.6485 32.6599 32.356 37.3471 27.6658Z" fill="white"/>
<path id="Vector_2" d="M23.4222 23.7621C30.2143 16.9656 31.9207 7.6537 27.2335 2.96348C22.5464 -1.72674 13.2407 -0.0192068 6.44856 6.77735C-0.343531 13.5739 -2.04994 22.8858 2.6372 27.576C7.32433 32.2662 16.6301 30.5587 23.4222 23.7621Z" fill="white"/>
</g>
<g id="Group_3">
<path id="Vector_3" d="M11.7387 11.8549H8.15173V22.623H11.7387V11.8549Z" fill="#282727"/>
<path id="Vector_4" d="M15.3257 19.0336V15.4442H4.56464V19.0336H15.3257Z" fill="#282727"/>
</g>
<path id="Vector_5" d="M25.4845 19.5169C24.6609 19.9884 24.3802 21.0473 24.8575 21.882C25.3349 22.7167 26.3894 23.0111 27.213 22.5395L33.1777 19.1244C34.0013 18.6528 34.282 17.5939 33.8047 16.7592C33.3273 15.9246 32.2728 15.6302 31.4492 16.1017L25.4845 19.5169Z" fill="#282727"/>
<path id="Vector_6" d="M23.1987 14.9015C22.3752 15.373 22.0945 16.4319 22.5718 17.2666C23.0491 18.1013 24.1037 18.3957 24.9272 17.9242L30.892 14.509C31.7155 14.0375 31.9962 12.9786 31.5189 12.1439C31.0416 11.3092 29.987 11.0148 29.1635 11.4863L23.1987 14.9015Z" fill="#282727"/>
</g>
</g>
</g>
<defs>
<clipPath id="clip0_0_254">
<rect width="40" height="30" fill="white" transform="translate(-0.00671387 0.316406)"/>
</clipPath>
</defs>
</svg>
