<svg width="347" height="192" viewBox="0 0 347 192" fill="none" xmlns="http://www.w3.org/2000/svg">
<g clip-path="url(#clip0_0_296)">
<path d="M119.273 119.885C119.63 119.167 120.223 118.6 120.716 117.966C120.645 118.025 120.57 118.081 120.493 118.133C120.128 118.288 119.791 118.501 119.493 118.764C119.311 119.017 119.188 119.308 119.133 119.615L118.284 122.923C118.45 122.712 118.617 122.506 118.787 122.299C118.776 121.469 118.942 120.646 119.273 119.885Z" fill="#F2F2F2"/>
<path d="M199.492 122.118C199.436 122.493 199.324 122.856 199.159 123.197C199.165 124.6 198.976 125.998 198.596 127.349C198.439 127.918 198.322 128.497 198.246 129.082C197.459 134.469 196.7 140.097 198.042 145.318C198.14 145.001 198.315 144.714 198.552 144.483C199.439 143.392 199.789 141.97 200.052 140.588C201.435 133.307 201.052 125.88 200.718 118.443C200.512 118.217 200.266 118.031 199.992 117.896C200.008 118.22 200 118.544 199.969 118.867C199.865 119.958 199.706 121.043 199.492 122.118Z" fill="#F2F2F2"/>
<path d="M152.766 119.895C152.761 119.46 152.673 119.029 152.506 118.627C152.334 118.3 152.116 117.998 151.86 117.732L151.14 116.911C150.774 125.63 149.994 134.372 151.613 142.911C151.877 144.293 152.226 145.715 153.113 146.807C153.35 147.038 153.525 147.324 153.623 147.641C154.956 142.434 154.206 136.792 153.419 131.405C153.343 130.82 153.226 130.241 153.07 129.672C152.478 127.488 152.339 125.206 152.663 122.966C152.798 121.948 152.832 120.92 152.766 119.895Z" fill="#F2F2F2"/>
<path d="M156.892 101.492C157.855 103.081 158.455 104.964 158.994 106.763L159.224 107.541C159.114 104.904 159.061 102.264 159.041 99.6232C158.521 100.086 157.998 100.543 157.472 100.995L156.892 101.492Z" fill="#F2F2F2"/>
<path d="M164.639 190.475C164.785 188.626 164.642 186.765 164.216 184.96C163.923 183.816 163.47 182.697 163.43 181.519C163.438 180.732 163.534 179.948 163.716 179.182C165.086 172.202 165.676 164.865 163.603 158.062C163.047 156.24 162.31 154.477 161.744 152.661C161.486 153.343 161.171 154.002 160.804 154.631C160.726 154.338 160.583 154.066 160.386 153.835C160.19 153.604 159.944 153.42 159.668 153.296C159.683 153.62 159.675 153.944 159.644 154.267C159.545 155.358 159.39 156.443 159.181 157.518C159.126 157.948 158.986 158.362 158.771 158.737C158.496 159.12 158.126 159.426 157.698 159.625C157.892 160.065 158.085 160.503 158.275 160.96L156.885 161.354C157.798 163.357 157.038 165.643 156.552 167.77C154.809 175.177 156.379 183.088 155.552 190.578L164.639 190.475Z" fill="#F2F2F2"/>
<path d="M159.594 84.5018C159.951 83.7841 160.544 83.2166 161.037 82.5824C160.966 82.6417 160.891 82.6974 160.814 82.7493C160.449 82.9044 160.111 83.1175 159.814 83.3802C159.632 83.6333 159.509 83.9242 159.454 84.2314L158.605 87.5394C158.771 87.3291 158.938 87.1222 159.108 86.9152C159.097 86.0852 159.263 85.2625 159.594 84.5018Z" fill="#F2F2F2"/>
<path d="M193.087 84.5118C193.082 84.0762 192.994 83.6457 192.827 83.2434C192.655 82.9163 192.437 82.6151 192.181 82.3488L191.461 81.5276C191.101 90.1164 190.341 98.7252 191.868 107.14C192.138 106.229 192.411 105.321 192.681 104.413C193.092 102.914 193.628 101.453 194.284 100.044C194.127 98.7085 193.934 97.35 193.74 96.0214C193.664 95.4365 193.547 94.8576 193.391 94.289C192.799 92.1049 192.66 89.8225 192.984 87.5828C193.119 86.565 193.153 85.5364 193.087 84.5118Z" fill="#F2F2F2"/>
<path d="M178.555 150.128L177.416 190.335L180.415 190.301C179.887 185.408 179.646 180.489 179.695 175.567C179.695 174.135 179.745 172.686 179.448 171.288C179.238 170.31 178.872 169.372 178.672 168.39C178.476 167.216 178.401 166.025 178.449 164.835L178.555 150.128Z" fill="#F2F2F2"/>
<path d="M152.783 150.151C152.83 150.038 152.876 149.931 152.92 149.817C153.076 149.41 153.216 149 153.346 148.586L153.32 148.632C153.056 149.066 152.77 149.484 152.473 149.894C152.58 149.974 152.683 150.061 152.783 150.151Z" fill="#F2F2F2"/>
<path d="M62.1275 105.208C62.1225 104.772 62.0343 104.342 61.8676 103.939C61.695 103.612 61.4774 103.311 61.2211 103.045L60.5014 102.224C60.1348 110.943 59.355 119.685 60.9745 128.224C61.2378 129.606 61.5877 131.028 62.4741 132.119C62.7112 132.35 62.8865 132.637 62.9839 132.954C64.3169 127.746 63.5671 122.105 62.7807 116.717C62.7096 116.133 62.5983 115.554 62.4474 114.985C61.8501 112.802 61.706 110.52 62.0242 108.279C62.1589 107.261 62.1935 106.232 62.1275 105.208Z" fill="#F2F2F2"/>
<path d="M62.1443 135.464C62.1909 135.35 62.2376 135.244 62.2809 135.13C62.4375 134.723 62.5775 134.312 62.7074 133.898L62.6808 133.945C62.4175 134.379 62.1309 134.796 61.8344 135.207C61.941 135.287 62.0443 135.374 62.1443 135.464Z" fill="#F2F2F2"/>
<path d="M47.5953 170.824C47.3999 177.8 47.2021 184.777 47.0022 191.753L48.4318 191.737C48.2185 190.849 47.9019 189.984 47.7186 189.086C47.5225 187.912 47.4477 186.721 47.4954 185.531L47.5953 170.824Z" fill="#F2F2F2"/>
<path d="M69.0055 190.986C68.5775 190.787 68.2079 190.481 67.9325 190.098C67.7173 189.723 67.578 189.309 67.5226 188.879C67.3133 187.804 67.1587 186.719 67.0594 185.628C67.0283 185.305 67.0205 184.981 67.0361 184.657C66.7594 184.781 66.5139 184.965 66.3173 185.196C66.1207 185.427 65.9781 185.699 65.8998 185.992C64.9255 184.265 64.2899 182.367 64.027 180.401C63.9271 180.735 63.8237 181.102 63.6938 181.452C63.0007 183.518 61.9943 185.518 61.7944 187.688C61.6983 188.996 61.8108 190.311 62.1276 191.583L68.7456 191.513L69.0055 190.986Z" fill="#F2F2F2"/>
<path d="M73.3574 179.963C73.4874 180.377 73.6273 180.788 73.784 181.195C73.8273 181.309 73.8739 181.415 73.9206 181.529C74.0206 181.439 74.1239 181.352 74.2305 181.272C73.9339 180.861 73.6473 180.444 73.3841 180.01L73.3574 179.963Z" fill="#F2F2F2"/>
<path d="M121.099 186.907C120.632 184.918 120.312 182.897 120.143 180.861C119.614 175.966 119.086 171.07 118.557 166.174C118.54 166.044 118.527 165.917 118.514 165.787C118.494 165.85 118.477 165.914 118.457 165.977C118.054 167.162 117.254 168.163 116.457 169.138C115.661 170.113 114.665 171.118 113.495 170.834C113.016 170.676 112.58 170.406 112.225 170.046L109.56 167.739C109.033 167.294 108.51 166.837 107.99 166.368C107.967 169.589 107.893 172.81 107.727 176.025C107.674 177.026 107.59 178.104 107.11 178.995C108.094 182.056 108.639 185.241 108.73 188.455C108.753 189.327 108.73 190.195 108.703 191.066L116.514 190.982H116.561L122.436 190.919C121.946 189.604 121.453 188.279 121.099 186.907Z" fill="#F2F2F2"/>
<path d="M107.904 153.676C108.07 153.883 108.237 154.09 108.407 154.3L107.557 151.006C107.502 150.699 107.379 150.408 107.197 150.155C106.9 149.892 106.562 149.679 106.197 149.524C106.12 149.472 106.046 149.416 105.974 149.357C106.467 149.991 107.06 150.559 107.417 151.276C107.747 152.033 107.912 152.851 107.904 153.676Z" fill="#F2F2F2"/>
<path d="M117.564 139.012C117.774 141.329 117.897 143.655 118.014 145.982C118.13 148.309 118.25 150.575 118.367 152.872C118.639 151.096 119.051 149.345 119.6 147.634C119.12 146.743 119.037 145.682 118.983 144.664C118.817 141.449 118.743 138.228 118.72 135.007C118.21 135.464 117.694 135.911 117.174 136.342C117.368 137.221 117.498 138.114 117.564 139.012Z" fill="#F2F2F2"/>
<path d="M73.2941 162.796C72.5077 168.183 71.7479 173.811 73.0908 179.032C73.1883 178.716 73.3636 178.429 73.6007 178.198C74.4871 177.106 74.837 175.684 75.1002 174.302C76.7197 165.763 75.9399 157.021 75.5734 148.302L74.8636 149.123C74.6013 149.384 74.3769 149.681 74.1972 150.004C74.0287 150.402 73.9371 150.828 73.9272 151.26C73.8617 152.282 73.8963 153.308 74.0305 154.324C74.3602 156.569 74.2252 158.859 73.634 161.05C73.4803 161.623 73.3667 162.207 73.2941 162.796Z" fill="#F2F2F2"/>
<path d="M193.794 190.158L196.406 190.128C195.013 182.093 197.023 173.464 195.13 165.426C194.834 164.174 194.464 162.863 194.37 161.591C193.704 163.367 192.941 165.116 192.767 166.992C192.464 170.243 193.99 173.354 194.557 176.565C195.337 180.995 194.28 185.511 193.811 189.984C193.804 190.061 193.801 190.101 193.794 190.158Z" fill="#F2F2F2"/>
<path d="M283.626 186.129C280.6 177.096 283.626 167.025 281.437 157.755C280.934 155.629 280.174 153.326 281.104 151.34L279.714 150.916C279.904 150.475 280.097 150.038 280.291 149.58C280.02 149.443 279.769 149.27 279.544 149.066L278.524 158.483C278.355 160.519 278.035 162.54 277.568 164.528C276.992 166.751 276.055 168.868 275.385 171.054C273.596 176.919 273.793 183.178 274.756 189.267L284.752 189.156C284.386 188.155 283.969 187.15 283.626 186.129Z" fill="#F2F2F2"/>
<path d="M278.951 96.8426L278.978 96.7491L279.098 96.3586C278.811 96.1218 278.495 95.9232 278.158 95.7677C278.081 95.7159 278.006 95.6602 277.935 95.6008C278.264 96.0214 278.634 96.4153 278.951 96.8426Z" fill="#F2F2F2"/>
<path d="M245.305 126.221C245.435 126.635 245.574 127.045 245.731 127.453C245.774 127.566 245.821 127.673 245.868 127.786C245.968 127.696 246.071 127.609 246.178 127.529C245.881 127.119 245.594 126.701 245.331 126.268L245.305 126.221Z" fill="#F2F2F2"/>
<path d="M286.369 132.91C287.392 127.529 287.458 122.068 287.275 116.581C287.033 116.804 286.742 116.967 286.426 117.059C286.109 117.15 285.776 117.167 285.452 117.108L285.396 117.091C285.315 117.964 285.153 118.828 284.912 119.672C284.756 120.24 284.639 120.819 284.563 121.404C283.776 126.792 283.016 132.42 284.359 137.64C284.457 137.324 284.632 137.037 284.869 136.806C285.756 135.714 286.105 134.292 286.369 132.91Z" fill="#F2F2F2"/>
<path d="M138.201 190.762C138.201 189.013 138.212 187.263 138.235 185.511C138.183 187.265 138.134 189.016 138.088 190.765L138.201 190.762Z" fill="#F2F2F2"/>
<path d="M345.86 45.954C345.638 44.6945 345.375 43.4583 345.071 42.2454C341.838 29.1536 334.271 18.7055 320.411 13.0508C319.223 12.5679 317.988 12.1229 316.706 11.7156C313.789 10.7875 310.809 10.0735 307.789 9.57927C278.718 4.70905 254.272 7.02566 232.235 11.4185C230.992 11.6622 229.759 11.9192 228.53 12.1796C197.639 18.7189 171.334 28.8498 143.266 27.9653C142.036 27.9285 140.8 27.8685 139.564 27.7883C127.327 26.9739 114.705 23.9729 101.186 17.5906C85.2071 10.0499 68.9588 12.5835 54.2999 21.5629C46.0258 26.6234 38.2582 33.7401 31.3303 42.2588L31.307 42.2855C30.3295 43.4872 29.3698 44.7111 28.4279 45.9574C5.88482 75.9598 -6.63133 120.823 3.63551 155.589C4.00429 156.842 4.40417 158.079 4.83515 159.301C7.8009 167.776 12.2129 175.567 18.2643 182.29C21.7757 186.179 26.2793 189.035 31.2904 190.552C32.1501 190.815 33.0265 191.036 33.9129 191.219C34.1628 187 33.8729 182.781 32.6433 178.748C31.9768 176.555 31.0371 174.446 30.4606 172.223C29.9932 170.234 29.6736 168.213 29.5042 166.177C28.9755 161.281 28.4468 156.386 27.9181 151.49C27.5848 148.466 27.2516 145.431 27.3416 142.394C27.4321 139.179 27.9774 135.994 28.9611 132.934C28.4812 132.042 28.3979 130.981 28.3446 129.963C28.178 126.748 28.1047 123.527 28.0813 120.306C27.5615 120.769 27.0383 121.226 26.5118 121.678L23.8293 123.984C23.4743 124.344 23.0392 124.614 22.5597 124.772C21.3901 125.056 20.3537 124.014 19.5973 123.076C18.8408 122.138 18.0111 121.1 17.5979 119.915C17.2818 118.814 17.1589 117.667 17.2347 116.524C17.2613 115.058 17.3346 113.596 17.4113 112.134L18.0511 99.9337C18.171 97.597 18.291 95.2804 18.5009 92.9638C18.6509 91.2948 18.8642 89.5957 19.7206 88.1737C21.3301 85.5033 24.7823 84.5686 27.9181 84.7956C27.8395 84.6413 27.796 84.4714 27.7908 84.2983C27.7856 84.1251 27.8188 83.9529 27.8881 83.7942C28.0835 83.4953 28.3646 83.2626 28.6945 83.1266L33.3197 80.6464C33.6481 80.4376 34.0196 80.3064 34.4061 80.2625C34.6108 80.2555 34.8142 80.2979 34.9992 80.386L35.8956 79.7585C36.0964 79.6015 36.3216 79.4786 36.5621 79.3946C36.8629 79.3189 37.1794 79.334 37.4718 79.438C37.6978 78.9879 37.8283 78.4958 37.855 77.9926C37.8359 77.3662 37.7026 76.7485 37.4618 76.1701C36.389 75.3565 35.5169 74.3072 34.9126 73.1029C34.3083 71.8986 33.9879 70.5714 33.9762 69.2236C32.9765 68.6628 31.6902 68.3457 31.2837 67.164C31.0071 66.3629 31.337 65.4749 31.2237 64.6338C31.0024 64.4154 30.8337 64.1494 30.7305 63.856C30.4439 63.0215 30.8172 62.0935 30.6639 61.2256C30.5772 60.7516 30.3306 60.2809 30.4273 59.8069C30.5252 59.4712 30.7063 59.1658 30.9538 58.919L34.2294 55.0302C34.9526 54.1756 35.699 53.2977 36.692 52.787C39.0713 51.5653 41.9204 52.787 44.5929 52.787C45.4893 52.787 46.4157 52.6502 47.2588 52.9372C47.8648 53.1869 48.4221 53.5417 48.9049 53.9854L52.5705 56.9896C53.8034 57.991 55.133 59.1861 55.253 60.775C55.2814 61.2559 55.2111 61.7376 55.0464 62.1903C55.4718 62.737 55.7341 63.3932 55.8028 64.083C55.8861 65.1845 55.353 66.236 54.7398 67.154C53.8191 68.5238 52.6955 69.7451 51.4075 70.7758C51.106 72.3589 50.3764 73.8288 49.2981 75.0251C49.5392 76.1904 49.8553 77.3389 50.2445 78.4633C50.2537 78.4816 50.2615 78.5006 50.2678 78.5201C50.5793 78.538 50.8795 78.6433 51.1342 78.8238C51.3975 79.0197 51.6388 79.2436 51.854 79.4914C51.9692 79.3077 52.1395 79.1651 52.3405 79.0842C52.8337 78.8839 53.3869 79.1109 53.8701 79.3312C55.3396 79.9988 56.8358 80.6931 58.0321 81.778C58.4687 82.1747 58.8359 82.6418 59.1185 83.1599C60.7991 82.9114 62.512 83.2981 63.9237 84.2448C66.4429 85.9739 67.4792 89.1317 68.3556 92.0625L70.3184 98.6351C71.1781 101.516 72.0445 104.423 72.2444 107.421C72.4277 110.151 72.0545 112.882 71.6813 115.589C71.1648 119.334 72.3811 123.447 72.3977 127.229C72.3977 128.2 72.3977 129.182 72.3744 130.166C73.7316 129.322 75.3408 128.981 76.923 129.202C77.2056 128.684 77.5728 128.216 78.0093 127.82C79.2056 126.735 80.7018 126.047 82.1714 125.373C82.6546 125.153 83.2077 124.926 83.7009 125.126C83.9019 125.207 84.0722 125.349 84.1874 125.533C84.4026 125.285 84.644 125.061 84.9072 124.866C85.1619 124.685 85.4621 124.58 85.7736 124.562C85.7799 124.542 85.7877 124.523 85.7969 124.505C86.1862 123.381 86.5023 122.232 86.7433 121.067C85.6651 119.871 84.9355 118.401 84.634 116.818C83.346 115.787 82.2223 114.566 81.3016 113.196C80.6885 112.278 80.1553 111.226 80.2386 110.125C80.3074 109.435 80.5696 108.779 80.9951 108.232C80.8304 107.779 80.76 107.298 80.7885 106.817C80.9084 105.228 82.238 104.039 83.471 103.031L87.1365 100.027C87.6194 99.5834 88.1767 99.2286 88.7827 98.979C89.6291 98.6919 90.5555 98.8288 91.4485 98.8288C94.1144 98.8288 96.9702 97.6137 99.3494 98.8288C100.349 99.3395 101.089 100.217 101.812 101.072L105.088 104.961C105.335 105.208 105.516 105.513 105.614 105.849C105.707 106.323 105.464 106.793 105.378 107.267C105.224 108.135 105.598 109.063 105.311 109.898C105.208 110.191 105.039 110.457 104.818 110.676C104.704 111.517 105.034 112.405 104.758 113.206C104.351 114.387 103.072 114.705 102.065 115.265C102.049 116.608 101.727 117.929 101.124 119.128C100.52 120.326 99.6512 121.371 98.583 122.182C98.3422 122.76 98.2089 123.378 98.1898 124.004C98.2165 124.507 98.347 125 98.573 125.45C98.8653 125.346 99.1818 125.331 99.4827 125.406C99.7232 125.49 99.9483 125.613 100.149 125.77L101.046 126.398C101.231 126.31 101.434 126.267 101.639 126.274C102.025 126.318 102.397 126.449 102.725 126.658L107.35 129.138C107.552 129.243 107.742 129.369 107.917 129.515C107.953 128.618 107.993 127.716 108.04 126.818L108.69 114.621C108.81 112.284 108.93 109.968 109.14 107.651C109.29 105.982 109.503 104.283 110.359 102.861C111.969 100.191 115.421 99.256 118.557 99.483C118.478 99.3287 118.435 99.1588 118.43 98.9857C118.424 98.8125 118.458 98.6404 118.527 98.4816C118.722 98.1827 119.003 97.95 119.333 97.814L123.959 95.3338C124.287 95.125 124.658 94.9938 125.045 94.95C125.25 94.943 125.453 94.9853 125.638 95.0735L126.534 94.4459C126.735 94.289 126.96 94.1661 127.201 94.0821C127.502 94.0063 127.818 94.0214 128.111 94.1255C128.337 93.6753 128.467 93.1832 128.494 92.6801C128.475 92.0536 128.341 91.4359 128.101 90.8575C127.028 90.0439 126.156 88.9946 125.551 87.7903C124.947 86.586 124.627 85.2588 124.615 83.911C123.615 83.3502 122.329 83.0331 121.922 81.8514C121.646 81.0503 121.976 80.1624 121.863 79.3212C121.641 79.1029 121.473 78.8369 121.369 78.5434C121.083 77.7089 121.456 76.7809 121.303 75.913C121.192 75.5378 121.107 75.1552 121.049 74.7681C120.686 75.4528 120.406 76.1791 120.216 76.9311C119.746 78.8238 119.83 80.8066 119.55 82.736C119.45 83.4036 119.26 84.118 118.697 84.4685C118.26 84.7422 117.697 84.7188 117.227 84.9158C116.441 85.2496 116.004 86.1175 115.894 86.962C115.784 87.8065 115.918 88.6644 115.918 89.5189C115.918 91.7521 114.848 94.062 112.902 95.1502C110.339 96.5856 107.157 95.6342 104.388 94.6595C105.622 94.2136 106.718 93.4517 107.567 92.4497L104.521 91.8322C106.29 91.0028 107.926 89.915 109.376 88.6043C109.918 88.1724 110.344 87.6127 110.616 86.9753C110.949 86.0373 110.639 84.9725 110.949 84.0345C111.466 82.4289 113.428 81.8214 114.428 80.4661C115.305 79.2845 115.335 77.6989 115.331 76.2301L115.315 70.6289C115.315 69.0166 115.418 67.1573 116.701 66.1793C118.13 65.0877 120.156 65.7086 121.956 65.6986C123.852 65.6986 125.658 64.9075 127.544 64.6972C129.324 64.4936 132.293 65.742 132.243 67.1573C133.234 67.3329 134.236 67.4367 135.242 67.4678C136.138 67.4678 137.064 67.3309 137.908 67.618C138.514 67.8676 139.071 68.2224 139.554 68.6661L143.219 71.6704C144.452 72.6718 145.782 73.8668 145.885 75.4557C145.914 75.9367 145.843 76.4184 145.679 76.8711C146.104 77.4178 146.366 78.074 146.435 78.7637C146.518 79.8653 145.985 80.9168 145.372 81.8347C144.451 83.2045 143.328 84.4258 142.04 85.4565C141.738 87.0397 141.008 88.5096 139.93 89.7059C140.171 90.8712 140.487 92.0197 140.877 93.1441C140.886 93.1624 140.894 93.1813 140.9 93.2008C141.211 93.2188 141.512 93.324 141.766 93.5046C142.03 93.7005 142.271 93.9243 142.486 94.1722C142.601 93.9884 142.772 93.8458 142.973 93.7649C143.466 93.5646 144.019 93.7916 144.502 94.012C145.797 94.5492 147.027 95.2323 148.168 96.0482C148.168 95.9814 148.168 95.9113 148.168 95.8445C148.194 94.3791 148.268 92.9171 148.344 91.455L149.011 79.2377C149.131 76.9011 149.251 74.5845 149.461 72.2679C149.611 70.5989 149.824 68.8998 150.68 67.4778C152.29 64.8073 155.742 63.8727 158.878 64.0997C158.799 63.9454 158.756 63.7755 158.751 63.6023C158.745 63.4292 158.779 63.257 158.848 63.0983C159.043 62.7994 159.324 62.5667 159.654 62.4306L164.279 59.9505C164.608 59.7417 164.979 59.6104 165.366 59.5666C165.571 59.5596 165.774 59.602 165.959 59.6901L166.855 59.0625C167.056 58.9056 167.281 58.7827 167.522 58.6987C167.823 58.623 168.139 58.6381 168.432 58.7421C168.658 58.292 168.788 57.7998 168.815 57.2967C168.796 56.6703 168.662 56.0526 168.422 55.4741C167.349 54.6606 166.477 53.6112 165.872 52.4069C165.268 51.2026 164.948 49.8755 164.936 48.5277C163.936 47.9669 162.65 47.6497 162.243 46.4681C161.967 45.6669 162.297 44.779 162.183 43.9378C161.962 43.7195 161.793 43.4535 161.69 43.1601C161.404 42.3256 161.777 41.3976 161.624 40.5297C161.537 40.0557 161.29 39.585 161.387 39.111C161.485 38.7753 161.666 38.4698 161.914 38.2231L165.189 34.3343C165.912 33.4797 166.659 32.6018 167.652 32.0911C170.031 30.8694 172.88 32.0911 175.553 32.0911C176.449 32.0911 177.375 31.9542 178.219 32.2413C178.825 32.4909 179.382 32.8458 179.865 33.2894L183.53 36.2937C184.763 37.2951 186.093 38.4901 186.196 40.079C186.224 40.56 186.154 41.0417 185.989 41.4944C186.415 42.0411 186.677 42.6973 186.746 43.3871C186.829 44.4886 186.296 45.5401 185.683 46.4581C184.762 47.8279 183.639 49.0491 182.351 50.0798C182.049 51.663 181.319 53.1329 180.241 54.3292C180.482 55.4945 180.798 56.643 181.188 57.7674C181.197 57.7857 181.205 57.8047 181.211 57.8241C181.522 57.8421 181.823 57.9474 182.077 58.1279C182.341 58.3238 182.582 58.5476 182.797 58.7955C182.912 58.6117 183.083 58.4692 183.284 58.3883C183.777 58.188 184.33 58.415 184.813 58.6353C186.283 59.3029 187.779 59.9972 188.975 61.0821C189.412 61.4788 189.779 61.9459 190.062 62.464C191.748 62.2112 193.467 62.598 194.883 63.5489C197.403 65.278 198.439 68.4358 199.315 71.3666L201.278 77.9392C202.138 80.82 203.004 83.7274 203.204 86.725C203.374 89.2753 203.058 91.8289 202.711 94.3624C202.794 94.2757 202.878 94.1889 202.971 94.1054C204.167 93.0206 205.663 92.3329 207.133 91.6586C207.616 91.4383 208.169 91.2113 208.663 91.4116C208.864 91.4925 209.034 91.6351 209.149 91.8189C209.364 91.571 209.606 91.3472 209.869 91.1512C210.124 90.9707 210.424 90.8655 210.735 90.8475C210.742 90.828 210.749 90.809 210.759 90.7907C211.148 89.6663 211.464 88.5179 211.705 87.3525C210.627 86.1562 209.897 84.6864 209.596 83.1032C208.308 82.0725 207.184 80.8512 206.263 79.4814C205.65 78.5635 205.117 77.512 205.2 76.4104C205.269 75.7206 205.531 75.0644 205.957 74.5177C205.792 74.065 205.722 73.5834 205.75 73.1024C205.87 71.5135 207.2 70.3251 208.416 69.317L212.081 66.3128C212.564 65.8691 213.122 65.5143 213.728 65.2647C214.574 64.9776 215.5 65.1144 216.393 65.1144C217.399 65.0834 218.402 64.9796 219.393 64.804C219.343 63.3887 222.312 62.1336 224.091 62.3439C225.974 62.5608 227.783 63.3453 229.679 63.3453C231.479 63.3453 233.505 62.7344 234.934 63.8259C236.217 64.804 236.324 66.6633 236.321 68.2756L236.334 73.8969C236.334 75.3656 236.361 76.9512 237.237 78.1328C238.19 79.4213 240.013 80.0389 240.629 81.4709C241.382 79.5315 242.402 77.7323 244.088 76.5773C245.491 75.6281 247.194 75.2333 248.87 75.4691C249.153 74.9509 249.52 74.4838 249.956 74.0871C251.153 73.0023 252.649 72.3146 254.119 71.6403C254.602 71.42 255.155 71.193 255.648 71.3933C255.849 71.4742 256.019 71.6168 256.135 71.8006C256.35 71.5527 256.591 71.3289 256.854 71.1329C257.109 70.9524 257.409 70.8472 257.721 70.8292C257.727 70.8097 257.735 70.7907 257.744 70.7724C258.133 69.648 258.449 68.4996 258.69 67.3342C257.612 66.138 256.883 64.6681 256.581 63.0849C255.293 62.0542 254.169 60.8329 253.249 59.4631C252.636 58.5452 252.102 57.4937 252.186 56.3921C252.255 55.7023 252.517 55.0462 252.942 54.4994C252.778 54.0468 252.707 53.5651 252.736 53.0841C252.856 51.4952 254.185 50.3068 255.401 49.2987L259.067 46.2945C259.55 45.8508 260.107 45.496 260.713 45.2464C261.56 44.9593 262.486 45.0961 263.379 45.0961C264.385 45.0651 265.387 44.9613 266.378 44.7857C266.328 43.3704 269.297 42.1153 271.077 42.3256C272.959 42.5425 274.769 43.327 276.665 43.327C278.464 43.327 280.49 42.7161 281.92 43.8076C283.203 44.7857 283.31 46.645 283.306 48.2573L283.32 53.8685C283.32 55.3373 283.346 56.9229 284.223 58.1045C285.222 59.4598 287.185 60.0673 287.702 61.6729C288.001 62.6142 287.702 63.6757 288.035 64.6137C288.307 65.2511 288.733 65.8108 289.274 66.2427C290.02 66.9171 290.817 67.5331 291.657 68.0853C291.794 67.6412 292.007 67.2244 292.287 66.8536C292.122 66.4009 292.052 65.9192 292.08 65.4382C292.2 63.8493 293.53 62.661 294.746 61.6529L298.412 58.6486C298.894 58.2049 299.452 57.8501 300.058 57.6005C300.904 57.3134 301.831 57.4503 302.724 57.4503C305.389 57.4503 308.245 56.2352 310.625 57.4503C311.624 57.961 312.364 58.8389 313.087 59.6934L316.363 63.5823C316.61 63.829 316.791 64.1345 316.889 64.4702C316.983 64.9442 316.739 65.4149 316.653 65.8889C316.499 66.7568 316.873 67.6847 316.586 68.5193C316.483 68.8127 316.314 69.0787 316.093 69.297C315.98 70.1382 316.309 71.0261 316.033 71.8273C315.626 73.0089 314.347 73.326 313.34 73.8868C313.324 75.2293 313.002 76.5503 312.399 77.7491C311.795 78.9478 310.926 79.9925 309.858 80.8033C309.617 81.3817 309.484 81.9994 309.465 82.6259C309.492 83.129 309.622 83.6211 309.848 84.0712C310.14 83.9672 310.457 83.9521 310.758 84.0278C310.998 84.1119 311.223 84.2348 311.424 84.3917L312.321 85.0192C312.506 84.9311 312.709 84.8887 312.914 84.8957C313.3 84.9396 313.672 85.0708 314 85.2796L318.625 87.7598C318.955 87.8958 319.236 88.1285 319.432 88.4274C319.501 88.5862 319.534 88.7583 319.529 88.9315C319.524 89.1046 319.48 89.2745 319.402 89.4288C322.538 89.2018 325.99 90.1331 327.599 92.8069C328.456 94.2289 328.669 95.9414 328.819 97.597C329.029 99.9136 329.152 102.24 329.269 104.567L329.899 116.797C329.975 118.26 330.049 119.722 330.075 121.187C330.151 122.33 330.028 123.478 329.712 124.578C329.309 125.764 328.509 126.765 327.713 127.74C326.916 128.714 325.92 129.719 324.75 129.435C324.271 129.277 323.836 129.007 323.481 128.648L320.798 126.341C320.272 125.896 319.748 125.439 319.229 124.969C319.205 128.19 319.132 131.411 318.965 134.626C318.912 135.627 318.829 136.706 318.349 137.597C319.332 140.658 319.878 143.843 319.968 147.057C319.993 149.677 319.846 152.297 319.528 154.898C319.808 154.304 320.089 153.703 320.371 153.095C334.847 122.112 351.545 77.4419 345.86 45.954Z" fill="#F2F2F2"/>
<path d="M28.5079 104.941L27.6582 108.249C27.8248 108.038 27.9914 107.831 28.1614 107.624C28.1464 106.795 28.3077 105.973 28.6346 105.211C28.9911 104.493 29.5843 103.926 30.0775 103.292C30.0059 103.351 29.9314 103.407 29.8542 103.459C29.4893 103.614 29.1517 103.827 28.8545 104.089C28.6771 104.344 28.5587 104.635 28.5079 104.941Z" fill="#F2F2F2"/>
<path d="M232.865 119.962C233.032 120.169 233.198 120.376 233.368 120.586L232.519 117.291C232.464 116.984 232.341 116.693 232.159 116.44C231.861 116.178 231.524 115.964 231.159 115.809C231.082 115.758 231.007 115.702 230.936 115.642C231.429 116.277 232.022 116.844 232.379 117.562C232.708 118.318 232.874 119.136 232.865 119.962Z" fill="#F2F2F2"/>
<path d="M285.189 140.137C285.289 140.047 285.392 139.96 285.499 139.88C285.202 139.47 284.916 139.052 284.653 138.618L284.626 138.572C284.756 138.986 284.896 139.396 285.052 139.803C285.096 139.917 285.132 140.024 285.189 140.137Z" fill="#F2F2F2"/>
<path d="M198.319 146.249C198.449 146.663 198.589 147.074 198.746 147.481C198.789 147.594 198.836 147.701 198.882 147.815C198.982 147.725 199.086 147.638 199.192 147.558C198.896 147.147 198.609 146.73 198.346 146.296L198.319 146.249Z" fill="#F2F2F2"/>
<path d="M227.05 81.5743C227.034 82.9168 226.712 84.2378 226.109 85.4366C225.505 86.6353 224.636 87.68 223.568 88.4908C223.327 89.0692 223.194 89.6869 223.175 90.3134C223.201 90.8165 223.332 91.3086 223.558 91.7587C223.85 91.6547 224.167 91.6396 224.468 91.7153C224.708 91.7994 224.933 91.9223 225.134 92.0792L226.03 92.7067C226.215 92.6186 226.419 92.5763 226.624 92.5832C227.01 92.6271 227.382 92.7583 227.71 92.9671L232.335 95.4473C232.665 95.5833 232.946 95.816 233.142 96.1149C233.211 96.2736 233.244 96.4458 233.239 96.619C233.234 96.7921 233.19 96.962 233.112 97.1163C234.104 97.0434 235.101 97.0928 236.081 97.2632C236.436 95.3978 236.898 93.5544 237.464 91.742C236.356 90.4755 235.752 88.8458 235.764 87.1622C235.764 86.3077 235.901 85.4498 235.787 84.6053C235.674 83.7608 235.238 82.8862 234.455 82.5591C233.978 82.3621 233.422 82.3855 232.985 82.1118C232.422 81.778 232.232 81.0369 232.132 80.3793C231.842 78.4499 231.925 76.4671 231.465 74.5744C231.276 73.8224 230.996 73.0961 230.632 72.4114C230.575 72.7985 230.49 73.1811 230.379 73.5563C230.226 74.4242 230.599 75.3522 230.312 76.1867C230.209 76.4802 230.041 76.7462 229.819 76.9645C229.706 77.8057 230.036 78.6936 229.759 79.4947C229.336 80.6897 228.057 81.0069 227.05 81.5743Z" fill="#F2F2F2"/>
<path d="M245.241 109.053C244.455 114.441 243.695 120.069 245.038 125.289C245.136 124.973 245.311 124.686 245.548 124.455C246.434 123.363 246.784 121.941 247.047 120.559C248.667 112.021 247.887 103.278 247.521 94.5593L246.811 95.3805C246.549 95.6414 246.324 95.9381 246.144 96.2617C245.976 96.6592 245.884 97.0851 245.875 97.5168C245.809 98.5392 245.844 99.5656 245.978 100.581C246.307 102.827 246.172 105.116 245.581 107.307C245.428 107.881 245.314 108.464 245.241 109.053Z" fill="#F2F2F2"/>
<path d="M240.17 136.699C239.935 136.893 239.661 137.032 239.367 137.108C239.073 137.184 238.765 137.193 238.467 137.136C237.987 136.978 237.552 136.708 237.197 136.348L234.531 134.042C234.005 133.597 233.482 133.139 232.962 132.67C232.938 135.891 232.865 139.112 232.698 142.327C232.645 143.328 232.562 144.407 232.082 145.298C233.066 148.359 233.611 151.544 233.702 154.758C233.781 157.795 233.455 160.83 233.125 163.854C232.599 168.75 232.07 173.646 231.539 178.541C231.37 180.577 231.05 182.598 230.582 184.587C230.123 186.359 229.433 188.062 228.833 189.794L232.235 189.757L236.567 189.711H237.1L244.432 189.63C244.433 189.623 244.433 189.615 244.432 189.607C244.998 186.396 246.524 183.285 246.221 180.034C246.021 177.864 245.015 175.864 244.322 173.798C241.296 164.765 244.322 154.694 242.132 145.425C241.629 143.298 240.869 140.995 241.799 139.009L240.409 138.585C240.599 138.144 240.793 137.707 240.986 137.25C240.689 137.107 240.414 136.921 240.17 136.699Z" fill="#F2F2F2"/>
<path d="M213.431 183.175C213.444 185.431 213.459 187.688 213.474 189.944H213.621L213.431 183.175Z" fill="#F2F2F2"/>
<path d="M299.738 175.497C299.76 178.906 299.782 182.312 299.805 185.715L300.025 185.585C299.927 182.222 299.831 178.86 299.738 175.497Z" fill="#F2F2F2"/>
<path d="M291.66 69.9646L291.097 70.0781C291.411 70.4513 291.762 70.7924 292.143 71.0962C291.941 70.7379 291.779 70.3584 291.66 69.9646Z" fill="#F2F2F2"/>
<path d="M260.417 163.146L260.517 177.854C260.564 179.043 260.489 180.235 260.293 181.409C260.093 182.39 259.727 183.328 259.517 184.306C259.22 185.705 259.257 187.154 259.27 188.586C259.27 188.873 259.27 189.16 259.27 189.447L261.16 189.427C260.913 180.668 260.665 171.908 260.417 163.146Z" fill="#F2F2F2"/>
<path d="M319.172 112.284C319.339 112.491 319.505 112.698 319.675 112.909L318.825 109.601C318.771 109.293 318.648 109.003 318.465 108.749C318.168 108.487 317.831 108.274 317.466 108.119C317.389 108.067 317.314 108.011 317.242 107.952C317.736 108.586 318.329 109.153 318.685 109.871C319.017 110.632 319.183 111.454 319.172 112.284Z" fill="#F2F2F2"/>
<path d="M274.036 61.546C274.02 62.8884 273.698 64.2095 273.094 65.4082C272.491 66.6069 271.622 67.6516 270.553 68.4624C270.313 69.0409 270.179 69.6585 270.16 70.285C270.187 70.7881 270.317 71.2802 270.543 71.7304C270.836 71.6263 271.152 71.6112 271.453 71.687C271.694 71.771 271.919 71.8939 272.12 72.0508L273.016 72.6784C273.201 72.5902 273.404 72.5479 273.609 72.5549C273.996 72.5987 274.367 72.73 274.696 72.9387L279.321 75.4189C279.651 75.5549 279.932 75.7876 280.127 76.0865C280.196 76.2453 280.23 76.4174 280.224 76.5906C280.219 76.7638 280.176 76.9336 280.097 77.0879C283.233 76.8609 286.685 77.7923 288.295 80.466C289.151 81.8881 289.364 83.6005 289.514 85.2561C289.541 85.5599 289.564 85.8637 289.588 86.1708C290.731 85.2328 292.097 84.5985 293.443 83.981C293.926 83.7607 294.479 83.5337 294.973 83.734C295.174 83.8149 295.344 83.9575 295.459 84.1412C295.674 83.8934 295.916 83.6695 296.179 83.4736C296.434 83.2931 296.734 83.1879 297.045 83.1699C297.052 83.1504 297.059 83.1314 297.069 83.1131C297.458 81.9887 297.774 80.8403 298.015 79.6749C296.937 78.4786 296.207 77.0088 295.906 75.4256C294.895 74.6104 293.985 73.6781 293.193 72.6483C290.704 73.4595 287.998 74.0169 285.765 72.7685C283.819 71.6803 282.766 69.3704 282.766 67.1372C282.766 66.2827 282.903 65.4248 282.79 64.5803C282.676 63.7357 282.24 62.8612 281.457 62.534C280.98 62.3371 280.424 62.3605 279.987 62.0867C279.424 61.7529 279.234 61.0119 279.134 60.3543C278.844 58.4249 278.928 56.4421 278.468 54.5494C278.278 53.7973 277.998 53.071 277.635 52.3864C277.577 52.7735 277.492 53.156 277.381 53.5313C277.228 54.3992 277.601 55.3272 277.315 56.1617C277.212 56.4551 277.043 56.7211 276.822 56.9395C276.708 57.7806 277.038 58.6686 276.762 59.4697C276.322 60.6614 275.042 60.9785 274.036 61.546Z" fill="#F2F2F2"/>
<path d="M220.152 183.762V191.773H48.5385V183.762C48.5385 183.142 48.7842 182.548 49.2217 182.11C49.6591 181.672 50.2524 181.425 50.8711 181.425H217.82C218.438 181.425 219.032 181.672 219.469 182.11C219.907 182.548 220.152 183.142 220.152 183.762Z" fill="#3F3D56"/>
<path d="M155.096 64.6938C156.369 66.0057 157.592 67.5212 157.831 69.3337C155.119 70.0447 152.343 68.7095 149.807 67.5178C141.96 63.8211 133.673 61.1434 125.148 59.5499C124.482 59.4264 123.769 59.2895 123.265 58.8289C122.316 57.9577 122.489 55.7612 123.372 54.8566C124.325 53.8819 126.088 54.0221 127.371 53.952C132.488 53.6923 137.602 54.5145 142.381 56.3653C147.16 58.216 151.497 61.0537 155.109 64.6938H155.096Z" fill="#192534"/>
<path d="M211.602 191.76H143.439C142.53 189.681 141.814 187.522 141.3 185.311C141.127 184.623 140.967 183.929 140.807 183.238C140.667 182.631 140.534 182.02 140.407 181.412C140.02 179.585 139.687 177.75 139.407 175.908C139.138 174.172 138.916 172.431 138.741 170.684C138.567 169.012 138.433 167.336 138.338 165.653C138.338 165.606 138.338 165.56 138.338 165.51C138.298 164.712 138.338 163.841 138.884 163.277C139.364 162.793 140.097 162.686 140.78 162.639C146.445 162.252 151.95 164.308 157.602 164.004C159.134 163.914 160.367 163.67 161.794 163.964C162.019 164.007 162.242 164.063 162.46 164.134C162.793 164.238 163.103 164.348 163.42 164.468C165.589 165.246 167.612 166.227 169.944 166.665C173.917 167.416 177.992 167.269 182.024 167.559C182.357 167.579 182.691 167.606 183.024 167.639C183.434 167.673 183.844 167.716 184.25 167.766C187.705 168.225 191.097 169.076 194.36 170.303C196.12 170.941 197.853 171.662 199.562 172.426C200.052 172.646 200.538 172.867 201.025 173.094C201.891 173.498 202.771 173.925 203.631 174.389C203.964 174.566 204.297 174.746 204.61 174.936C207.2 176.442 209.539 178.311 210.902 180.848C211.005 181.035 211.098 181.225 211.188 181.419C211.278 181.612 211.345 181.776 211.418 181.96C212.608 185.054 212.192 188.392 211.602 191.76Z" fill="#202F42"/>
<path opacity="0.1" d="M211.602 191.76H143.439C142.53 189.681 141.814 187.522 141.3 185.311C141.127 184.623 140.967 183.929 140.807 183.238C140.667 182.631 140.534 182.02 140.407 181.412C140.02 179.585 139.687 177.75 139.407 175.908C139.138 174.172 138.916 172.431 138.741 170.684C138.567 169.012 138.433 167.336 138.338 165.653C138.338 165.606 138.338 165.56 138.338 165.51C138.298 164.712 138.338 163.841 138.884 163.277C139.364 162.793 140.097 162.686 140.78 162.639C146.445 162.252 151.95 164.308 157.602 164.004C159.134 163.914 160.367 163.67 161.794 163.964C162.019 164.007 162.242 164.063 162.46 164.134C162.793 164.238 163.103 164.348 163.42 164.468C165.589 165.246 167.612 166.227 169.944 166.665C173.917 167.416 177.992 167.269 182.024 167.559C182.357 167.579 182.691 167.606 183.024 167.639C183.434 167.673 183.844 167.716 184.25 167.766C187.705 168.225 191.097 169.076 194.36 170.303C196.12 170.941 197.853 171.662 199.562 172.426C200.052 172.646 200.538 172.867 201.025 173.094C201.891 173.498 202.771 173.925 203.631 174.389C203.964 174.566 204.297 174.746 204.61 174.936C207.2 176.442 209.539 178.311 210.902 180.848C211.005 181.035 211.098 181.225 211.188 181.419C211.278 181.612 211.345 181.776 211.418 181.96C212.608 185.054 212.192 188.392 211.602 191.76Z" fill="black"/>
<path d="M149.391 191.76H72.5643C70.8382 189.857 69.7085 187.377 69.9884 184.85C70.0889 183.8 70.2649 182.758 70.515 181.733C70.5416 181.622 70.5716 181.516 70.6016 181.399C71.094 179.458 72.3168 177.783 74.0139 176.725C77.0396 174.779 80.6785 174.018 84.0108 172.757C85.8003 172.089 87.5264 171.244 89.3158 170.573C91.8896 169.644 94.5465 168.964 97.2501 168.544C97.55 168.494 97.8532 168.444 98.1531 168.4C98.453 168.357 98.7696 168.304 99.0795 168.26C100.746 168.02 102.412 167.823 104.095 167.629C107.76 167.199 111.482 166.771 115.171 167.099C118.119 167.405 121.02 168.057 123.815 169.041C125.921 169.746 128.001 170.563 130.067 171.378C133.289 172.653 136.538 173.958 139.414 175.871C139.664 176.038 139.907 176.205 140.15 176.382C142.064 177.774 143.743 179.464 145.122 181.389C145.922 182.492 146.626 183.662 147.225 184.887C148.284 187.057 149.014 189.374 149.391 191.76Z" fill="#202F42"/>
<path d="M127.484 57.1832C126.225 59.9504 124.089 62.4573 121.226 63.4754C119.703 64.0162 118.06 64.113 116.508 64.557C114.955 65.0009 113.388 65.9189 112.842 67.4377C112.641 68.1031 112.545 68.7956 112.555 69.4906C112.319 76.0165 112.126 82.7994 114.728 88.7879C116.977 93.9552 121.099 98.0376 125.172 101.93C129.937 106.483 134.982 111.099 141.25 113.136C144.915 114.321 149.231 114.451 152.263 112.091C153.509 111.119 154.436 109.808 155.346 108.512C157.345 105.658 159.378 102.764 160.637 99.4997C163.22 92.8236 162.35 85.3864 161.44 78.2931C161.435 77.8718 161.276 77.467 160.994 77.1548C160.641 76.8577 160.124 76.8977 159.661 76.9244C156.419 77.1181 152.88 75.4524 151.793 72.388C151.327 71.0528 151.34 69.6241 151.363 68.2221L151.49 60.1374C151.49 59.2661 151.513 58.3649 151.187 57.5537C150.617 56.1451 149.187 55.3206 147.818 54.6396C143.402 52.4268 138.798 50.6104 134.062 49.2119C131.989 48.6011 130.413 47.583 129.49 49.8128C128.514 52.1327 128.557 54.8232 127.484 57.1832Z" fill="#FBBEBE"/>
<path opacity="0.1" d="M127.484 57.1832C126.225 59.9504 124.089 62.4573 121.226 63.4754C119.703 64.0162 118.06 64.113 116.508 64.557C114.955 65.0009 113.388 65.9189 112.842 67.4377C112.641 68.1031 112.545 68.7956 112.555 69.4906C112.319 76.0165 112.126 82.7994 114.728 88.7879C116.977 93.9552 121.099 98.0376 125.172 101.93C129.937 106.483 134.982 111.099 141.25 113.136C144.915 114.321 149.231 114.451 152.263 112.091C153.509 111.119 154.436 109.808 155.346 108.512C157.345 105.658 159.378 102.764 160.637 99.4997C163.22 92.8236 162.35 85.3864 161.44 78.2931C161.435 77.8718 161.276 77.467 160.994 77.1548C160.641 76.8577 160.124 76.8977 159.661 76.9244C156.419 77.1181 152.88 75.4524 151.793 72.388C151.327 71.0528 151.34 69.6241 151.363 68.2221L151.49 60.1374C151.49 59.2661 151.513 58.3649 151.187 57.5537C150.617 56.1451 149.187 55.3206 147.818 54.6396C143.402 52.4268 138.798 50.6104 134.062 49.2119C131.989 48.6011 130.413 47.583 129.49 49.8128C128.514 52.1327 128.557 54.8232 127.484 57.1832Z" fill="black"/>
<path d="M152.09 66.7384C165.709 66.7384 174 52.6898 174 39.0475C174 25.4052 162.96 14.3459 149.341 14.3459C135.722 14.3459 124.682 25.4052 124.682 39.0475C124.682 52.6898 138.472 66.7384 152.09 66.7384Z" fill="#FBBEBE"/>
<path d="M151.683 77.7756L148.928 84.6286C148.304 86.1775 147.671 87.7431 146.712 89.1083C144.062 92.8703 138.844 94.5927 134.492 93.144C130.383 91.7854 126.738 87.9333 122.496 88.858C120.296 89.3386 118.544 91.1078 117.564 93.1373C116.584 95.1669 116.271 97.4501 116.061 99.6966C115.092 110.088 116.081 120.569 118.977 130.594C119.277 131.628 119.643 132.713 120.44 133.428C121.413 134.282 122.809 134.409 124.105 134.482C130.103 134.841 136.113 135.052 142.133 135.117C145.832 135.16 149.547 135.147 153.2 134.573C156.852 133.998 160.347 132.904 163.95 132.183C167.319 131.515 170.768 131.204 174.06 130.233C174.596 130.076 175.163 129.876 175.493 129.429C175.748 129.002 175.865 128.506 175.826 128.01C175.826 126.087 175.229 124.218 174.583 122.409C172.917 117.792 170.971 113.249 170.044 108.432C168.768 101.806 169.518 94.9799 169.378 88.2304C169.331 85.8137 169.165 83.3568 168.335 81.0836C167.505 78.8104 165.936 76.7208 163.726 75.7428C159.918 74.0437 153.506 73.2826 151.683 77.7756Z" fill="#6C63FF"/>
<path d="M139.011 110.205C137.251 108.709 137.344 106.042 137.134 103.739C136.751 99.4196 134.875 95.3939 133.029 91.4683L127.514 79.7318C125.208 74.8382 122.849 69.267 124.752 64.1965C125.388 62.4874 126.478 60.9652 127.038 59.2294C127.597 57.4936 127.484 55.3239 126.065 54.179C124.258 52.7236 121.589 53.715 119.547 54.8199C115.791 56.8605 112.17 59.1406 108.707 61.6462C107.767 62.3138 106.78 63.1049 106.474 64.2265C106.284 64.9242 106.384 65.6886 106.117 66.3629C105.598 67.6981 103.978 68.0986 102.595 68.4124C96.8955 69.7285 91.5237 72.1952 86.8082 75.6619C82.0927 79.1285 78.1327 83.5222 75.1702 88.5743C74.1873 90.2138 73.4042 91.9654 72.8376 93.7916C72.1711 96.1283 71.9978 98.555 71.8379 100.968C71.4114 107.177 71.0004 113.383 70.6049 119.585C70.4283 122.332 70.255 125.146 71.0048 127.793C71.488 129.495 72.3377 131.088 72.6976 132.823C73.4274 136.432 71.8879 140.117 69.9651 143.255C68.0424 146.393 65.6764 149.337 64.4701 152.798C63.7613 155.001 63.3971 157.3 63.3905 159.615C63.213 167.425 65.3741 175.11 69.5952 181.679C73.6906 182.283 76.7564 178.204 80.5185 176.472C86.0335 173.938 92.998 175.968 98.1798 172.837C99.4461 172.072 100.542 171.031 101.882 170.4C103.098 169.829 104.448 169.625 105.777 169.432C110.689 168.721 115.664 168.063 120.6 168.597C127.597 169.355 134.832 172.47 141.413 169.956C143.036 169.335 144.522 168.397 146.152 167.793C152.15 165.566 158.814 168.227 165.203 167.736C164.203 167.683 163.756 166.548 163.57 165.55C163.15 163.335 162.779 161.11 162.457 158.874C162.173 156.934 161.93 154.941 162.373 153.035C162.78 151.266 163.753 149.697 164.569 148.075C167.145 142.968 168.235 137.24 170.444 131.959C171.494 129.442 172.777 127.039 174.023 124.615C179.055 114.668 182.974 104.194 185.71 93.3844C182.8 88.1537 180.165 82.7026 177.255 77.4752C176.412 75.9598 175.546 74.4176 174.256 73.2459C172.41 71.5502 169.908 70.8125 167.498 70.1282C165.429 69.5373 163.33 68.9432 161.167 68.9398C159.004 68.9365 152.92 66.6733 151.46 68.2522C149.954 69.8812 153.343 75.1419 153.266 77.3584C153.19 79.5749 153.433 81.818 153.066 84.0078C152.533 87.2023 150.734 90.0497 149.917 93.1808C149.594 94.6627 149.346 96.1601 149.174 97.6671C148.63 101.037 147.749 104.344 146.545 107.538C146.325 108.21 146 108.843 145.582 109.414C144.002 111.35 141.463 110.615 139.011 110.205Z" fill="#192534"/>
<path d="M187.969 145.378C188.602 146.152 189.468 146.683 190.252 147.301C193.334 149.721 195.147 153.403 197.869 156.223C199.242 157.649 200.838 158.84 202.301 160.172C205.703 163.277 208.339 167.112 210.945 170.911C211.612 171.879 212.278 172.87 212.611 173.995C213.195 175.914 212.721 178.054 211.658 179.756C210.595 181.459 208.992 182.761 207.263 183.782C206.36 184.318 205.419 184.787 204.447 185.184C202.448 185.999 200.542 183.792 201.668 181.95C202.383 180.794 203.037 179.602 203.627 178.378C204.004 177.699 204.221 176.943 204.261 176.168C204.234 174.806 203.161 173.651 201.928 173.08C200.695 172.51 199.305 172.413 197.956 172.246C190.324 171.322 183.062 168.428 176.882 163.847C173.383 161.244 170.011 157.428 170.568 153.099C170.981 149.868 173.533 147.297 176.336 145.642C178.612 144.304 181.116 143.398 183.72 142.971C184.453 142.851 186.293 142.347 186.949 142.854C187.532 143.288 187.422 144.71 187.969 145.378Z" fill="#FBBEBE"/>
<path opacity="0.1" d="M187.969 145.378C188.602 146.152 189.468 146.683 190.252 147.301C193.334 149.721 195.147 153.403 197.869 156.223C199.242 157.649 200.838 158.84 202.301 160.172C205.703 163.277 208.339 167.112 210.945 170.911C211.612 171.879 212.278 172.87 212.611 173.995C213.195 175.914 212.721 178.054 211.658 179.756C210.595 181.459 208.992 182.761 207.263 183.782C206.36 184.318 205.419 184.787 204.447 185.184C202.448 185.999 200.542 183.792 201.668 181.95C202.383 180.794 203.037 179.602 203.627 178.378C204.004 177.699 204.221 176.943 204.261 176.168C204.234 174.806 203.161 173.651 201.928 173.08C200.695 172.51 199.305 172.413 197.956 172.246C190.324 171.322 183.062 168.428 176.882 163.847C173.383 161.244 170.011 157.428 170.568 153.099C170.981 149.868 173.533 147.297 176.336 145.642C178.612 144.304 181.116 143.398 183.72 142.971C184.453 142.851 186.293 142.347 186.949 142.854C187.532 143.288 187.422 144.71 187.969 145.378Z" fill="black"/>
<path d="M160.187 25.0912C156.855 28.5093 151.503 28.6529 146.732 28.5694L146.888 26.6968L140.177 29.1068C141.917 27.8116 143.409 26.2127 144.582 24.3868C143.712 23.6224 142.35 23.6458 141.317 24.1732C140.284 24.7006 139.524 25.6319 138.874 26.5933C136.97 29.4496 135.758 32.7116 135.335 36.1196C134.912 39.5277 135.288 42.9878 136.435 46.2244C135.102 46.9654 133.402 46.7484 132.123 45.9406C130.843 45.1328 129.95 43.8176 129.344 42.429C128.947 41.5211 128.534 40.4462 127.587 40.1625C126.794 39.9255 125.921 40.4095 125.481 41.1138C125.087 41.8491 124.927 42.6881 125.025 43.5172C125.148 45.4599 126.564 47.3026 126.848 49.2253C127.131 51.148 129.997 52.6434 128.514 53.8985C128.087 54.2624 123.712 55.2538 123.159 55.167C122.409 55.0502 121.913 54.3258 121.599 53.6348C120.106 50.3502 120.643 46.5114 119.76 43.0132C119.05 40.1992 117.451 37.7023 115.874 35.2655C115.451 34.5555 114.952 33.894 114.385 33.2927C113.862 32.7787 113.215 32.3347 112.962 31.6471C112.709 30.9594 113.175 29.9781 113.898 30.0882C112.731 28.9577 111.475 27.9229 110.143 26.9938C111.462 25.3204 112.753 23.6257 114.015 21.91C114.448 21.3225 114.898 20.5748 114.581 19.9072C114.397 19.6013 114.136 19.3484 113.825 19.1728L110.379 16.8362C110.303 15.2506 113.525 15.8347 114.022 14.336C114.109 13.9376 114.079 13.5224 113.935 13.1409L112.762 8.85487L117.217 10.8777C117.757 11.1247 118.334 11.3751 118.923 11.2883C120.1 11.1181 120.666 9.72276 120.726 8.53108C120.786 7.33939 120.596 6.05758 121.186 5.01945C123.203 4.93934 125.219 4.9538 127.234 5.06284C127.361 4.04709 127.093 3.02131 126.484 2.1988L141.373 1.37095C143.916 1.23076 146.528 1.10058 148.944 1.90171C149.764 2.17543 150.59 2.56932 151.45 2.47251C152.31 2.37571 153.176 1.58126 152.93 0.753418C155.161 2.01543 157.202 3.58894 158.991 5.42669C159.474 6.00286 160.058 6.48588 160.714 6.85204C161.38 7.16581 162.293 7.15246 162.8 6.59835C163.207 6.15439 163.41 5.37996 164.01 5.35325C164.383 5.35325 164.676 5.647 164.913 5.94409C165.764 7.03504 166.457 8.24083 166.972 9.52582C168.04 9.38157 169.087 9.10576 170.088 8.70466C169.048 9.58256 169.021 11.2182 169.518 12.4867C170.014 13.7551 170.914 14.8233 171.517 16.0384C172.117 17.3433 172.521 18.7304 172.714 20.1542C173.017 21.9367 173.02 24.1832 171.441 25.0578C170.068 25.8189 168.365 25.0077 167.109 24.0564C163.65 21.4594 162.99 22.2204 160.187 25.0912Z" fill="#282727"/>
<path d="M177.612 182.801L200.702 180.715C201.63 180.631 202.489 180.19 203.1 179.485C203.71 178.78 204.023 177.865 203.974 176.933L203.957 176.599C203.919 175.857 203.653 175.144 203.194 174.56C202.736 173.975 202.109 173.547 201.398 173.334L197.666 172.213C197.33 172.111 196.981 172.06 196.63 172.059H188.162C187.931 172.06 187.7 172.082 187.472 172.126C185.683 172.476 177.449 174.099 177.142 174.396C176.979 174.562 175.999 175.297 175.053 175.998C174.487 176.417 174.055 176.993 173.813 177.656C173.571 178.318 173.528 179.037 173.69 179.723L173.76 180.03C173.958 180.881 174.457 181.631 175.166 182.141C175.875 182.651 176.744 182.885 177.612 182.801Z" fill="#464A5F"/>
<path d="M166.336 175.571L175.666 172.9L192.994 170.563C192.994 170.563 203.991 167.559 204.99 176.906L204.057 178.488C204.057 178.488 204.99 172.566 193.661 174.235C193.661 174.235 173.29 173.551 174.147 181.579C174.147 181.572 167.002 180.244 166.336 175.571Z" fill="#6C63FF"/>
<path d="M178.998 169.899C180.287 169.899 181.331 169.75 181.331 169.565C181.331 169.381 180.287 169.232 178.998 169.232C177.71 169.232 176.666 169.381 176.666 169.565C176.666 169.75 177.71 169.899 178.998 169.899Z" fill="#6C63FF"/>
<path d="M199.825 169.732H198.159V172.737H199.825V169.732Z" fill="#6C63FF"/>
<path d="M179.831 169.732H178.165V172.737H179.831V169.732Z" fill="#6C63FF"/>
<path d="M201.142 170.005C201.306 169.574 200.325 168.798 198.95 168.27C197.575 167.743 196.327 167.664 196.163 168.094C195.998 168.525 196.979 169.301 198.354 169.829C199.729 170.356 200.977 170.435 201.142 170.005Z" fill="#6C63FF"/>
<path d="M104.365 175.08C105.078 175.824 105.804 176.582 106.721 177.049C107.627 177.453 108.592 177.708 109.58 177.807C119.674 179.365 129.733 181.107 139.757 183.034C142.579 183.582 145.422 184.149 148.088 185.248C149.447 185.812 150.754 186.513 152.087 187.104C159.751 190.472 168.415 190.255 176.776 189.974C178.412 189.921 180.108 189.854 181.584 189.17C182.687 188.666 183.697 187.708 183.797 186.499C183.97 184.4 181.588 183.161 179.685 182.257C175.143 180.11 171.184 176.619 168.791 172.192C168.365 171.411 168.018 170.36 168.618 169.699C169.068 169.205 169.831 169.202 170.501 169.228C173.3 169.337 176.099 169.308 178.898 169.141C180.348 169.051 182.267 168.364 182.037 166.932C181.937 166.318 181.431 165.86 180.951 165.46C178.428 163.337 175.566 161.15 172.27 161.214C170.541 161.247 168.891 161.908 167.272 162.465C158.548 165.43 149.154 165.593 139.947 165.533C137.694 165.533 135.425 165.49 133.219 165.029C131.407 164.6 129.632 164.027 127.911 163.317C122.326 161.184 116.717 159.037 111.546 156.043C109.49 154.855 107.197 153.479 104.904 154.09C103.876 154.425 102.94 154.996 102.172 155.759C99.4428 158.229 97.1401 161.254 97.9166 165.046C98.7063 169.031 101.652 172.243 104.365 175.08Z" fill="#FBBEBE"/>
<path d="M102.878 110.615C103.738 113.403 104.241 116.353 105.721 118.867C107.29 121.537 109.903 123.607 110.809 126.568C111.449 128.664 111.143 130.907 111.143 133.107C111.143 135.601 111.612 138.171 112.989 140.247C113.682 141.295 114.585 142.183 115.375 143.161C118.877 147.501 119.957 153.296 120.393 158.85C117.061 156.961 113.162 155.011 109.553 156.31C108.094 156.837 106.861 157.852 105.714 158.904C103.49 160.938 101.456 163.173 99.6394 165.58C98.6864 166.838 97.75 168.377 98.1632 169.899C96.1905 167.028 94.1911 164.138 92.6582 160.98C91.5719 158.723 90.7288 156.34 89.4259 154.197C87.7864 151.503 85.4771 149.29 83.5344 146.807C79.1691 141.225 76.7198 134.316 75.5302 127.342C74.3405 120.369 74.2906 113.226 74.3272 106.136C74.3272 103.799 74.3772 101.369 75.3602 99.2426C75.9434 97.9775 76.8331 96.8826 77.7162 95.8044C78.8358 94.4325 79.9888 93.0338 81.5117 92.1326C86.3569 89.2752 91.5553 94.0119 94.7943 97.2531C98.5299 100.985 101.304 105.571 102.878 110.615Z" fill="#192534"/>
<path d="M186.406 94.5927C186.855 95.0029 187.218 95.4988 187.472 96.0515C187.726 96.7191 187.659 97.4534 187.606 98.1645C187.29 102.398 187.59 106.655 188.495 110.802C189.039 113.309 189.725 116.21 188.129 118.216C187.882 118.48 187.659 118.765 187.462 119.067C186.723 120.456 188.089 121.968 189.129 123.16C192.288 126.832 192.794 132.576 190.345 136.766C189.882 137.563 189.315 138.318 189.055 139.199C188.88 139.924 188.81 140.671 188.849 141.416L188.862 147C185.36 146.529 181.444 146.162 178.628 148.302C176.253 150.105 175.313 153.242 173.297 155.425C171.341 157.528 168.298 158.884 167.535 161.654L167.575 150.115C167.625 148.581 167.542 147.047 167.329 145.528C166.929 143.141 165.892 140.908 165.286 138.565C164.493 135.501 164.443 132.299 164.396 129.132C164.32 123.901 164.246 118.613 165.329 113.496C165.772 111.413 166.402 109.374 166.889 107.301C167.772 103.562 168.222 99.6699 169.771 96.1583C171.321 92.6467 174.363 89.4621 178.182 89.0849C182.204 88.681 183.91 91.979 186.406 94.5927Z" fill="#192534"/>
<path d="M201.323 169.482C202.438 168.837 202.373 166.631 201.177 164.556C199.981 162.48 198.106 161.321 196.991 161.966C195.875 162.611 195.94 164.817 197.137 166.892C198.333 168.968 200.207 170.128 201.323 169.482Z" fill="#FBBEBE"/>
<path opacity="0.1" d="M201.323 169.482C202.438 168.837 202.373 166.631 201.177 164.556C199.981 162.48 198.106 161.321 196.991 161.966C195.875 162.611 195.94 164.817 197.137 166.892C198.333 168.968 200.207 170.128 201.323 169.482Z" fill="black"/>
</g>
<defs>
<clipPath id="clip0_0_296">
<rect width="347" height="191" fill="white" transform="translate(0 0.763428)"/>
</clipPath>
</defs>
</svg>
