<svg width="26" height="26" viewBox="0 0 26 26" fill="none" xmlns="http://www.w3.org/2000/svg">
<g id="help">
<mask id="mask0_0_690" style="mask-type:alpha" maskUnits="userSpaceOnUse" x="0" y="0" width="26" height="26">
<rect id="Bounding box" x="0.5" y="0.120972" width="25" height="25" fill="#D9D9D9"/>
</mask>
<g mask="url(#mask0_0_690)">
<path id="help_2" d="M12.9479 18.871C13.3125 18.871 13.6207 18.7451 13.8724 18.4934C14.1241 18.2417 14.25 17.9335 14.25 17.5689C14.25 17.2043 14.1241 16.8962 13.8724 16.6444C13.6207 16.3927 13.3125 16.2668 12.9479 16.2668C12.5833 16.2668 12.2752 16.3927 12.0234 16.6444C11.7717 16.8962 11.6458 17.2043 11.6458 17.5689C11.6458 17.9335 11.7717 18.2417 12.0234 18.4934C12.2752 18.7451 12.5833 18.871 12.9479 18.871ZM12.0104 14.8606H13.9375C13.9375 14.2877 14.0026 13.8363 14.1328 13.5064C14.263 13.1766 14.632 12.7252 15.2396 12.1523C15.691 11.7009 16.0469 11.2712 16.3073 10.8632C16.5677 10.4552 16.6979 9.96476 16.6979 9.39185C16.6979 8.41962 16.342 7.6731 15.6302 7.15226C14.9184 6.63143 14.0764 6.37101 13.1042 6.37101C12.1146 6.37101 11.3116 6.63143 10.6953 7.15226C10.079 7.6731 9.64932 8.2981 9.40626 9.02726L11.125 9.70435C11.2118 9.39185 11.4071 9.0533 11.7109 8.68872C12.0148 8.32414 12.4792 8.14185 13.1042 8.14185C13.6597 8.14185 14.0764 8.29376 14.3542 8.59757C14.632 8.90139 14.7708 9.2356 14.7708 9.60018C14.7708 9.9474 14.6667 10.2729 14.4583 10.5767C14.25 10.8806 13.9896 11.1627 13.6771 11.4231C12.9132 12.1002 12.4445 12.6123 12.2708 12.9596C12.0972 13.3068 12.0104 13.9405 12.0104 14.8606ZM13 23.0377C11.559 23.0377 10.2049 22.7642 8.93751 22.2174C7.67015 21.6705 6.56772 20.9283 5.63022 19.9908C4.69272 19.0533 3.95053 17.9509 3.40366 16.6835C2.85678 15.4162 2.58334 14.062 2.58334 12.621C2.58334 11.18 2.85678 9.82587 3.40366 8.55851C3.95053 7.29115 4.69272 6.18872 5.63022 5.25122C6.56772 4.31372 7.67015 3.57153 8.93751 3.02466C10.2049 2.47778 11.559 2.20435 13 2.20435C14.441 2.20435 15.7951 2.47778 17.0625 3.02466C18.3299 3.57153 19.4323 4.31372 20.3698 5.25122C21.3073 6.18872 22.0495 7.29115 22.5964 8.55851C23.1432 9.82587 23.4167 11.18 23.4167 12.621C23.4167 14.062 23.1432 15.4162 22.5964 16.6835C22.0495 17.9509 21.3073 19.0533 20.3698 19.9908C19.4323 20.9283 18.3299 21.6705 17.0625 22.2174C15.7951 22.7642 14.441 23.0377 13 23.0377ZM13 20.9543C15.3264 20.9543 17.2969 20.1471 18.9115 18.5325C20.5261 16.9179 21.3333 14.9474 21.3333 12.621C21.3333 10.2946 20.5261 8.32414 18.9115 6.70955C17.2969 5.09497 15.3264 4.28768 13 4.28768C10.6736 4.28768 8.70314 5.09497 7.08855 6.70955C5.47397 8.32414 4.66668 10.2946 4.66668 12.621C4.66668 14.9474 5.47397 16.9179 7.08855 18.5325C8.70314 20.1471 10.6736 20.9543 13 20.9543Z" fill="white"/>
</g>
</g>
</svg>
