<svg width="268" height="205" viewBox="0 0 268 205" fill="none" xmlns="http://www.w3.org/2000/svg">
<g clip-path="url(#clip0_0_978)">
<path d="M83.5875 113.536C84.7169 112.028 85.4647 110.275 85.7731 108.422L98.3391 93.2787L90.9228 87.5404L78.9736 103.52C77.3007 104.387 75.8591 105.642 74.7721 107.18C72.0006 110.985 71.7231 115.496 74.1592 117.249C76.5914 119.005 80.8122 117.341 83.5837 113.536H83.5875Z" fill="#FFB6B6"/>
<path d="M134.483 53.4326L118.764 42.98L86.8638 91.2803L95.1704 100.153L134.483 53.4326Z" fill="#6C63FF"/>
<path d="M0.628906 112.22C0.628906 112.554 0.898728 112.822 1.23408 112.822H267.024C267.359 112.822 267.629 112.554 267.629 112.22C267.629 111.886 267.359 111.618 267.024 111.618H1.23408C0.898728 111.618 0.628906 111.886 0.628906 112.22Z" fill="#3F3D56"/>
<path d="M107.655 39.9114L105.902 27.8862L121.389 23.966L123.448 34.6065L107.655 39.9114Z" fill="#FFB6B6"/>
<path d="M60.9417 168.74L62.7803 185.81L75.4388 181.947L73.3958 168.334L60.9417 168.74Z" fill="#FFB6B6"/>
<path d="M105.659 94.5714C105.659 94.5714 64.2065 102.496 59.3073 114.487C54.4081 126.478 60.1245 171.383 60.1245 171.383L74.213 172.806L80.1336 121.192C80.1336 121.192 116.074 120.582 118.726 116.317C121.378 112.051 120.973 96.6044 120.973 96.6044L105.659 94.5714Z" fill="#2F2E41"/>
<path d="M61.1076 177.413L52.8973 185.53C52.8973 185.53 38.8858 196.983 47.8709 196.373C56.856 195.763 80.1338 190.278 79.9296 186.009C79.7253 181.74 76.048 173.209 76.048 173.209L61.1037 177.409H61.1076V177.413Z" fill="#2F2E41"/>
<path d="M108.931 173.658L118.19 188.142L127.815 179.093L119.913 167.793L108.931 173.658Z" fill="#FFB6B6"/>
<path d="M115.931 87.4445C115.931 87.4445 82.3192 112.853 83.2713 125.76C84.2273 138.668 109.375 176.385 109.375 176.385L122.634 171.437L104.926 122.569C104.926 122.569 136.862 106.152 137.336 101.157C137.81 96.1633 130.559 82.504 130.559 82.504L115.927 87.4445H115.931Z" fill="#2F2E41"/>
<path d="M113.222 180.393L108.546 192.772C108.546 192.772 101.766 208.709 109.544 204.194C117.323 199.68 135.736 184.486 133.651 180.75C131.566 177.014 124.465 170.992 124.465 170.992L113.222 180.393Z" fill="#2F2E41"/>
<path d="M113.083 31.653C120.044 31.653 125.687 26.0373 125.687 19.1099C125.687 12.1826 120.044 6.56689 113.083 6.56689C106.122 6.56689 100.478 12.1826 100.478 19.1099C100.478 26.0373 106.122 31.653 113.083 31.653Z" fill="#FFB6B6"/>
<path d="M122.403 28.7377L106.68 40.3218L104.229 90.7164L98.3081 96.4049L118.726 116.32C118.726 116.32 141.187 109.412 138.939 98.8445L136.692 88.2769L137.502 76.4857C138.689 59.2438 133.292 42.1937 122.395 28.7416H122.403V28.7377Z" fill="#6C63FF"/>
<path d="M122.149 28.9986L114.478 28.7454C114.478 28.7454 116.467 16.7854 111.726 16.8506L107.44 14.8215C107.44 14.8215 96.7201 7.63323 101.635 4.6183C106.553 1.60721 109.984 -1.10086 112.794 0.452633C115.608 2.00613 121.305 2.61218 121.305 2.61218C121.305 2.61218 131.411 6.8469 131.111 10.3873C130.81 13.9278 128.513 29.4359 122.145 28.9948H122.149V28.9986Z" fill="#2F2E41"/>
<path d="M88.6911 114.345C89.7434 112.784 90.4063 110.996 90.6222 109.132L102.425 93.3938L94.7351 88.0237L83.5914 104.568C81.9609 105.515 80.5848 106.842 79.5749 108.426C76.9924 112.366 76.9422 116.88 79.4593 118.514C81.9763 120.148 86.1085 118.28 88.6911 114.345Z" fill="#FFB6B6"/>
<path d="M136.55 51.8215L120.337 42.1515L90.8611 91.9592L99.5956 100.409L136.55 51.8215Z" fill="#6C63FF"/>
<path d="M218.984 126.224L222.445 159.212L209.247 160.267L208.492 128.25L218.984 126.224Z" fill="#FFB6B6"/>
<path d="M222.603 151.936L233.242 156.47C233.242 156.47 250.511 161.974 241.934 164.705C233.358 167.436 209.687 170.881 208.295 166.838C206.904 162.795 207.158 153.516 207.158 153.516L222.603 151.939V151.936Z" fill="#2F2E41"/>
<path d="M165.76 84.069L171.245 86.685C171.245 86.685 211.556 84.4334 214.293 91.8749C217.03 99.3201 222.322 143.8 222.322 143.8L208.091 144.709L201.889 114.571L165.764 84.069H165.76Z" fill="#2F2E41"/>
<path d="M203.94 93.0678C202.587 91.756 200.941 90.7855 199.133 90.237L185.703 75.8489L179.008 82.4081L193.351 96.2975C193.995 98.062 195.055 99.65 196.442 100.923C199.869 104.161 204.325 105.024 206.395 102.857C208.465 100.69 207.366 96.3052 203.94 93.0716V93.0678Z" fill="#FFB6B6"/>
<path d="M150.773 34.9517L138.288 49.0789L182.207 86.9075L192.137 79.8842L150.773 34.9517Z" fill="#6C63FF"/>
<path d="M198.901 125.549L177.647 151.096L167.648 142.457L190.101 119.508L198.901 125.549Z" fill="#FFB6B6"/>
<path d="M182.597 144.095L186.79 154.828C186.79 154.828 194.927 170.954 186.964 166.769C179 162.584 159.962 148.173 161.886 144.352C163.809 140.532 170.651 134.218 170.651 134.218L182.597 144.091V144.095Z" fill="#2F2E41"/>
<path d="M141.68 94.418C141.68 94.418 133.651 113.298 146.787 113.298C159.924 113.298 190.757 112.208 190.757 112.208L181.633 128.184L192.399 133.631C192.399 133.631 215.021 112.389 213.561 102.769C212.1 93.1484 171.245 86.6851 171.245 86.6851L162.992 88.8446L141.68 94.418Z" fill="#2F2E41"/>
<path d="M140.593 4.26538C140.593 4.26538 154.755 5.01336 156.023 10.4218C157.291 15.8265 154.389 21.3462 158.945 21.2886C163.501 21.2311 165.093 23.2487 165.093 23.2487C165.093 23.2487 160.444 36.3479 153.144 37.0998C145.843 37.8516 140.593 4.26538 140.593 4.26538Z" fill="#2F2E41"/>
<path d="M150.091 40.3909L150.53 28.2468L134.707 26.0143L133.813 36.8121L150.091 40.3909Z" fill="#FFB6B6"/>
<path d="M154.389 16.3136C156.597 22.8805 153.036 29.9882 146.436 32.1861C139.837 34.384 132.695 30.8397 130.486 24.2729C128.278 17.706 131.839 10.5983 138.438 8.40036C145.037 6.20245 152.18 9.74672 154.389 16.3136Z" fill="#FFB6B6"/>
<path d="M152.234 35.6345L137.748 32.6311L135.05 56.7122C134.36 59.3819 135.694 69.5237 136.403 72.1858L140.766 101.395L171.245 86.6812L164.303 69.5659L165.81 57.253L152.23 35.6345H152.234Z" fill="#6C63FF"/>
<path d="M159.118 67.9319C157.268 68.3154 155.541 69.1325 154.072 70.3177L134.576 73.3633L136.303 82.5539L155.892 78.4726C157.723 78.9252 159.638 78.9367 161.473 78.5071C166.087 77.4868 169.294 74.2916 168.643 71.3726C167.991 68.4535 163.724 66.9115 159.114 67.9319H159.118Z" fill="#FFB6B6"/>
<path d="M147.597 50.8242L134.518 39.6889L115.222 73.3633C114.652 81.2113 121.848 87.387 129.565 85.6647L146.872 81.4645L143.569 67.6058L133.84 67.2491L147.605 50.8204H147.597V50.8242Z" fill="#6C63FF"/>
<path d="M132.741 6.69734C132.741 6.69734 117.23 10.9512 120.75 17.0655C124.269 23.1797 128.401 24.8982 127.888 28.3504C127.376 31.8026 131.458 45.1933 137.667 43.1259C143.877 41.0584 153.147 37.0998 153.147 37.0998C153.147 37.0998 140.057 26.1563 142.362 24.2998C144.667 22.4433 137.394 9.34021 137.394 9.34021C137.394 9.34021 144.775 5.78826 148.688 6.85461C152.6 7.92096 154.782 7.5604 154.782 7.5604C154.782 7.5604 144.124 -2.37046 139.387 1.57656C134.649 5.52359 132.745 6.70118 132.745 6.70118C132.745 6.70118 132.745 6.70118 132.745 6.69734H132.741Z" fill="#2F2E41"/>
</g>
<defs>
<clipPath id="clip0_0_978">
<rect width="267" height="205" fill="white" transform="translate(0.628906)"/>
</clipPath>
</defs>
</svg>
